<svg width="21" height="21" viewBox="0 0 21 21" fill="none" xmlns="http://www.w3.org/2000/svg">
<path d="M17.8416 18.0412C13.9383 21.9445 7.60267 21.9445 3.69944 18.0412C-0.20379 14.138 -0.203789 7.80233 3.69944 3.8991C7.60267 -0.00412807 13.9383 -0.00412807 17.8416 3.8991C21.7448 7.80233 21.7448 14.138 17.8416 18.0412ZM13.2454 8.45287C13.0333 8.45287 12.8494 8.53772 12.7151 8.67207C12.5807 8.80642 12.4958 8.99027 12.4958 9.2024L12.4958 11.6348L8.82596 7.96497C8.53605 7.67505 8.05522 7.67505 7.7653 7.96497C7.47539 8.25488 7.47539 8.73571 7.7653 9.02563L11.4352 12.6955L9.00274 12.6955C8.59262 12.6955 8.25321 13.0349 8.25321 13.445C8.25321 13.8552 8.59262 14.1946 9.00274 14.1946L13.2454 14.1946C13.6555 14.1946 13.9949 13.8552 13.9949 13.445L13.9949 9.2024C13.9949 8.79228 13.6555 8.45287 13.2454 8.45287Z" fill="#F82A2A"/>
</svg>
