<svg width="40" height="40" viewBox="0 0 40 40" fill="none" xmlns="http://www.w3.org/2000/svg">
<path d="M9.19375 19.7937C9.04909 19.8656 8.93318 19.9846 8.86505 20.1311C8.79691 20.2776 8.78058 20.4429 8.81875 20.5999C8.975 21.1624 9.53125 21.2249 11.25 21.2249C12.3103 21.2855 13.3609 20.9932 14.2375 20.3937C14.9414 21.2386 15.8224 21.9184 16.8182 22.3849C17.8141 22.8514 18.9003 23.0933 20 23.0933C21.0997 23.0933 22.1859 22.8514 23.1818 22.3849C24.1776 21.9184 25.0586 21.2386 25.7625 20.3937C26.636 21.002 27.6868 21.3032 28.75 21.2499C30.4688 21.2499 31.025 21.1624 31.1813 20.6249C31.2194 20.4679 31.2031 20.3026 31.135 20.1561C31.0668 20.0096 30.9509 19.8906 30.8063 19.8187C28.55 18.4749 28.75 15.7874 28.75 15.6749C28.75 15.5624 28.75 15.6374 28.75 15.6124C29.2281 15.2501 29.5918 14.7579 29.7977 14.1945C30.0037 13.6311 30.0431 13.0203 29.9113 12.4351C29.7795 11.8499 29.482 11.315 29.0545 10.8943C28.6269 10.4735 28.0873 10.1847 27.5 10.0624V8.0874L20.475 9.9624C20.1636 10.044 19.8364 10.044 19.525 9.9624L12.5 8.0874V10.0624C11.9098 10.1827 11.3669 10.4711 10.9367 10.8928C10.5066 11.3145 10.2074 11.8515 10.0754 12.4392C9.9433 13.027 9.9839 13.6403 10.1923 14.2055C10.4007 14.7707 10.768 15.2636 11.25 15.6249C11.25 15.6249 11.25 15.6687 11.25 15.6937C11.25 15.7187 11.4625 18.4624 9.19375 19.7937ZM28.75 13.1249C28.7489 13.5117 28.6282 13.8888 28.4044 14.2043C28.1806 14.5199 27.8647 14.7585 27.5 14.8874V11.3624C27.8647 11.4913 28.1806 11.7299 28.4044 12.0455C28.6282 12.361 28.7489 12.7381 28.75 13.1249ZM26.25 11.8749V15.6249C26.25 17.2825 25.5915 18.8722 24.4194 20.0443C23.2473 21.2164 21.6576 21.8749 20 21.8749C18.3424 21.8749 16.7527 21.2164 15.5806 20.0443C14.4085 18.8722 13.75 17.2825 13.75 15.6249V11.8749H26.25ZM12.5 11.3624V14.8874C12.138 14.756 11.8253 14.5164 11.6043 14.201C11.3833 13.8857 11.2647 13.51 11.2647 13.1249C11.2647 12.7398 11.3833 12.3641 11.6043 12.0488C11.8253 11.7334 12.138 11.4938 12.5 11.3624Z" fill="#968FC3"/>
<path d="M35.3375 28.7064C35.0459 27.8398 34.5474 27.0574 33.8853 26.4268C33.2231 25.7963 32.4173 25.3366 31.5375 25.0877C31.1437 25.0002 24.7812 23.7502 23.7 23.5439C22.5433 24.0913 21.2796 24.3752 20 24.3752C18.7203 24.3752 17.4566 24.0913 16.3 23.5439C14.9062 23.8127 8.86246 24.9689 8.45621 25.0877C7.57157 25.3408 6.76252 25.8071 6.10001 26.4456C5.43749 27.0842 4.94174 27.8755 4.65621 28.7502C4.36871 29.5877 4.49996 29.3752 3.12496 37.4377C3.1162 37.5249 3.12586 37.6129 3.15332 37.6961C3.18078 37.7793 3.22543 37.8558 3.28436 37.9206C3.3433 37.9854 3.4152 38.0372 3.49541 38.0724C3.57562 38.1076 3.66235 38.1256 3.74996 38.1252C18.3062 38.1252 17.275 38.1939 17.5375 37.9627C17.9437 37.6127 17.8875 38.3752 15.8625 25.7939C19.5625 28.4439 19.5 28.7002 20 28.6002C20.5 28.7002 20.4125 28.4564 24.1375 25.7939C22.2062 37.7939 21.9812 37.7752 22.6 38.0689C22.7875 38.1564 21.975 38.1252 36.25 38.1252C36.3418 38.1265 36.4328 38.1076 36.5165 38.0698C36.6002 38.032 36.6745 37.9762 36.7342 37.9063C36.7938 37.8365 36.8374 37.7544 36.8617 37.6658C36.8861 37.5773 36.8906 37.4845 36.875 37.3939C35.525 29.5377 35.625 29.5564 35.3375 28.7064Z" fill="#968FC3"/>
<path d="M7.96866 5.62478L19.8437 8.74978C19.9463 8.7747 20.0535 8.7747 20.1562 8.74978L32.0312 5.62478C32.1969 5.62478 32.3559 5.55893 32.4731 5.44172C32.5903 5.32451 32.6562 5.16554 32.6562 4.99978C32.6562 4.83402 32.5903 4.67505 32.4731 4.55784C32.3559 4.44062 32.1969 4.37478 32.0312 4.37478L20.1562 1.87478C20.0697 1.85619 19.9802 1.85619 19.8937 1.87478L8.01866 4.37478C7.8529 4.36815 7.6913 4.42764 7.5694 4.54016C7.4475 4.65268 7.37529 4.80902 7.36866 4.97478C7.36203 5.14054 7.42152 5.30214 7.53405 5.42404C7.64657 5.54594 7.8029 5.61815 7.96866 5.62478Z" fill="#968FC3"/>
</svg>
