<svg width="246" height="220" viewBox="0 0 246 220" fill="none" xmlns="http://www.w3.org/2000/svg">
<g clip-path="url(#clip0_1955_51021)">
<path d="M118.106 4.78319V108.419C118.106 110.177 116.685 111.597 114.928 111.597H55.1408C53.8488 111.597 52.7333 110.827 52.2438 109.711C52.0833 109.374 51.987 108.997 51.9709 108.604C51.9629 108.54 51.9629 108.483 51.9629 108.419V7.6H115.698V3.17817C115.698 2.57629 115.474 2.02256 115.104 1.61328C115.498 1.62933 115.875 1.72563 116.22 1.88613C117.335 2.37567 118.106 3.49115 118.106 4.78319Z" fill="#231F20"/>
<path d="M115.698 8.40234V106.814C115.698 108.13 114.639 109.19 113.323 109.19H53.5356C52.2275 109.19 51.1602 108.13 51.1602 106.814V8.40234H115.698Z" fill="white"/>
<path d="M116.219 1.8859C115.73 0.778434 114.622 0 113.322 0H53.5354C51.7859 0 50.3574 1.42847 50.3574 3.17794V106.814C50.3574 108.114 51.1359 109.222 52.2433 109.711C52.6365 109.896 53.0779 109.992 53.5354 109.992H113.322C115.08 109.992 116.5 108.572 116.5 106.814V3.17794C116.5 2.72051 116.404 2.27913 116.219 1.8859ZM115.698 106.814C115.698 108.13 114.638 109.189 113.322 109.189H53.5354C53.4551 109.189 53.3749 109.189 53.2946 109.173C53.086 109.157 52.8773 109.109 52.6847 109.029C52.6285 109.013 52.5724 108.989 52.5162 108.957C52.3155 108.868 52.131 108.748 51.9705 108.604C51.9063 108.547 51.8501 108.491 51.7939 108.427C51.7377 108.371 51.6896 108.307 51.6414 108.243C51.5371 108.106 51.4488 107.962 51.3766 107.801C51.3445 107.729 51.3124 107.657 51.2883 107.576C51.2643 107.512 51.2402 107.44 51.2322 107.376C51.184 107.191 51.1599 107.007 51.1599 106.814V8.40228H115.698V106.814ZM115.698 7.59977H51.1599V3.17794C51.1599 1.86985 52.2273 0.80251 53.5354 0.80251H113.322C114.037 0.80251 114.671 1.11549 115.104 1.61304C115.473 2.02232 115.698 2.57606 115.698 3.17794V7.59977Z" fill="#231F20"/>
<path d="M115.698 3.17621V7.59804H51.1602V3.17621C51.1602 1.86812 52.2275 0.800781 53.5356 0.800781H113.323C114.037 0.800781 114.671 1.11376 115.104 1.61132C115.473 2.0206 115.698 2.57433 115.698 3.17621Z" fill="#31CCAF"/>
<path d="M135.479 20.2422H77.2966C75.4705 20.2422 73.9902 21.7225 73.9902 23.5485V89.6753C73.9902 91.5014 75.4705 92.9817 77.2966 92.9817H135.479C137.305 92.9817 138.785 91.5014 138.785 89.6753V23.5485C138.785 21.7225 137.305 20.2422 135.479 20.2422Z" fill="white"/>
<path d="M135.479 93.3738H77.2974C75.251 93.3738 73.5898 91.7126 73.5898 89.6662V23.5474C73.5898 21.501 75.251 19.8398 77.2974 19.8398H135.479C137.526 19.8398 139.187 21.501 139.187 23.5474V89.6662C139.187 91.7126 137.526 93.3738 135.479 93.3738ZM77.2974 20.6424C75.6924 20.6424 74.3924 21.9424 74.3924 23.5474V89.6662C74.3924 91.2712 75.6924 92.5713 77.2974 92.5713H135.479C137.084 92.5713 138.384 91.2712 138.384 89.6662V23.5474C138.384 21.9424 137.084 20.6424 135.479 20.6424H77.2974Z" fill="#231F20"/>
<path d="M107.508 55.7331C107.35 55.7331 107.192 55.6747 107.067 55.5497L104.117 52.5997C103.875 52.3581 103.875 51.9581 104.117 51.7164C104.358 51.4747 104.758 51.4747 105 51.7164L107.95 54.6664C108.192 54.9081 108.192 55.3081 107.95 55.5497C107.825 55.6664 107.667 55.7331 107.508 55.7331Z" fill="#262626"/>
<path d="M104.525 55.7682C104.367 55.7682 104.209 55.7099 104.084 55.5849C103.842 55.3432 103.842 54.9432 104.084 54.7016L107.034 51.7516C107.275 51.5099 107.675 51.5099 107.917 51.7516C108.159 51.9932 108.159 52.3932 107.917 52.6349L104.967 55.5849C104.85 55.7016 104.684 55.7682 104.525 55.7682Z" fill="#262626"/>
<path d="M110.166 60.9596H101.833C98.1577 60.9596 97.041 59.843 97.041 56.168V47.8346C97.041 44.1596 98.1577 43.043 101.833 43.043H103.083C104.541 43.043 104.999 43.518 105.583 44.293L106.833 45.9596C107.108 46.3263 107.149 46.3763 107.666 46.3763H110.166C113.841 46.3763 114.958 47.493 114.958 51.168V56.168C114.958 59.843 113.841 60.9596 110.166 60.9596ZM101.833 44.293C98.8577 44.293 98.291 44.8596 98.291 47.8346V56.168C98.291 59.143 98.8577 59.7096 101.833 59.7096H110.166C113.141 59.7096 113.708 59.143 113.708 56.168V51.168C113.708 48.193 113.141 47.6263 110.166 47.6263H107.666C106.599 47.6263 106.249 47.2596 105.833 46.7096L104.583 45.043C104.149 44.468 104.024 44.293 103.083 44.293H101.833Z" fill="#262626"/>
<path d="M83.403 67.3636V71H82.7389L81.1569 68.7113H81.1303V71H80.3615V67.3636H81.0362L82.6058 69.6506H82.6377V67.3636H83.403ZM87.3798 69.1818C87.3798 69.5784 87.3047 69.9157 87.1543 70.1939C87.0052 70.4721 86.8016 70.6845 86.5435 70.8313C86.2867 70.9769 85.9979 71.0497 85.6771 71.0497C85.3539 71.0497 85.0639 70.9763 84.807 70.8295C84.5502 70.6828 84.3472 70.4703 84.198 70.1921C84.0489 69.9139 83.9743 69.5772 83.9743 69.1818C83.9743 68.7853 84.0489 68.4479 84.198 68.1697C84.3472 67.8916 84.5502 67.6797 84.807 67.5341C85.0639 67.3873 85.3539 67.3139 85.6771 67.3139C85.9979 67.3139 86.2867 67.3873 86.5435 67.5341C86.8016 67.6797 87.0052 67.8916 87.1543 68.1697C87.3047 68.4479 87.3798 68.7853 87.3798 69.1818ZM86.6004 69.1818C86.6004 68.925 86.5619 68.7083 86.485 68.532C86.4092 68.3556 86.3021 68.2218 86.1636 68.1307C86.0251 68.0395 85.8629 67.994 85.6771 67.994C85.4912 67.994 85.3291 68.0395 85.1906 68.1307C85.0521 68.2218 84.9444 68.3556 84.8674 68.532C84.7917 68.7083 84.7538 68.925 84.7538 69.1818C84.7538 69.4387 84.7917 69.6553 84.8674 69.8317C84.9444 70.008 85.0521 70.1418 85.1906 70.233C85.3291 70.3241 85.4912 70.3697 85.6771 70.3697C85.8629 70.3697 86.0251 70.3241 86.1636 70.233C86.3021 70.1418 86.4092 70.008 86.485 69.8317C86.5619 69.6553 86.6004 69.4387 86.6004 69.1818ZM89.1066 71V67.3636H90.5412C90.8159 67.3636 91.0502 67.4128 91.2444 67.511C91.4397 67.6081 91.5882 67.746 91.69 67.9247C91.793 68.1023 91.8445 68.3112 91.8445 68.5515C91.8445 68.793 91.7924 69.0007 91.6883 69.1747C91.5841 69.3475 91.4332 69.4801 91.2355 69.5724C91.039 69.6648 90.8011 69.7109 90.5217 69.7109H89.5611V69.093H90.3974C90.5442 69.093 90.6661 69.0729 90.7632 69.0327C90.8602 68.9924 90.9325 68.9321 90.9798 68.8516C91.0283 68.7711 91.0526 68.671 91.0526 68.5515C91.0526 68.4308 91.0283 68.329 90.9798 68.2461C90.9325 68.1632 90.8597 68.1005 90.7614 68.0579C90.6643 68.0141 90.5418 67.9922 90.3939 67.9922H89.8754V71H89.1066ZM91.0704 69.3452L91.9741 71H91.1254L90.2412 69.3452H91.0704ZM92.3878 71V67.3636H94.8381V67.9975H93.1566V68.864H94.712V69.4979H93.1566V70.3661H94.8452V71H92.3878ZM98.6578 68.6367H97.8801C97.8659 68.5361 97.8369 68.4467 97.7931 68.3686C97.7493 68.2893 97.6931 68.2218 97.6244 68.1662C97.5558 68.1106 97.4765 68.0679 97.3865 68.0384C97.2977 68.0088 97.2012 67.994 97.0971 67.994C96.9089 67.994 96.7449 68.0407 96.6052 68.1342C96.4656 68.2266 96.3573 68.3615 96.2803 68.5391C96.2034 68.7154 96.1649 68.9297 96.1649 69.1818C96.1649 69.4411 96.2034 69.6589 96.2803 69.8352C96.3584 70.0116 96.4673 70.1448 96.607 70.2347C96.7467 70.3247 96.9083 70.3697 97.0918 70.3697C97.1947 70.3697 97.29 70.3561 97.3776 70.3288C97.4664 70.3016 97.5451 70.262 97.6138 70.2099C97.6824 70.1566 97.7392 70.0921 97.7842 70.0163C97.8304 69.9406 97.8623 69.8542 97.8801 69.7571L98.6578 69.7607C98.6377 69.9276 98.5874 70.0885 98.5069 70.2436C98.4276 70.3975 98.3204 70.5354 98.1855 70.6573C98.0517 70.7781 97.8919 70.8739 97.7061 70.945C97.5214 71.0148 97.3125 71.0497 97.0793 71.0497C96.755 71.0497 96.465 70.9763 96.2093 70.8295C95.9548 70.6828 95.7536 70.4703 95.6056 70.1921C95.4588 69.9139 95.3854 69.5772 95.3854 69.1818C95.3854 68.7853 95.46 68.4479 95.6092 68.1697C95.7583 67.8916 95.9607 67.6797 96.2164 67.5341C96.4721 67.3873 96.7597 67.3139 97.0793 67.3139C97.29 67.3139 97.4853 67.3435 97.6653 67.4027C97.8464 67.4619 98.0068 67.5483 98.1464 67.6619C98.2861 67.7744 98.3998 67.9123 98.4873 68.0756C98.5761 68.239 98.6329 68.426 98.6578 68.6367ZM102.551 69.1818C102.551 69.5784 102.476 69.9157 102.325 70.1939C102.176 70.4721 101.972 70.6845 101.714 70.8313C101.458 70.9769 101.169 71.0497 100.848 71.0497C100.525 71.0497 100.235 70.9763 99.9779 70.8295C99.7211 70.6828 99.5181 70.4703 99.3689 70.1921C99.2198 69.9139 99.1452 69.5772 99.1452 69.1818C99.1452 68.7853 99.2198 68.4479 99.3689 68.1697C99.5181 67.8916 99.7211 67.6797 99.9779 67.5341C100.235 67.3873 100.525 67.3139 100.848 67.3139C101.169 67.3139 101.458 67.3873 101.714 67.5341C101.972 67.6797 102.176 67.8916 102.325 68.1697C102.476 68.4479 102.551 68.7853 102.551 69.1818ZM101.771 69.1818C101.771 68.925 101.733 68.7083 101.656 68.532C101.58 68.3556 101.473 68.2218 101.334 68.1307C101.196 68.0395 101.034 67.994 100.848 67.994C100.662 67.994 100.5 68.0395 100.361 68.1307C100.223 68.2218 100.115 68.3556 100.038 68.532C99.9626 68.7083 99.9247 68.925 99.9247 69.1818C99.9247 69.4387 99.9626 69.6553 100.038 69.8317C100.115 70.008 100.223 70.1418 100.361 70.233C100.5 70.3241 100.662 70.3697 100.848 70.3697C101.034 70.3697 101.196 70.3241 101.334 70.233C101.473 70.1418 101.58 70.008 101.656 69.8317C101.733 69.6553 101.771 69.4387 101.771 69.1818ZM103.12 71V67.3636H104.555C104.83 67.3636 105.064 67.4128 105.258 67.511C105.453 67.6081 105.602 67.746 105.704 67.9247C105.807 68.1023 105.858 68.3112 105.858 68.5515C105.858 68.793 105.806 69.0007 105.702 69.1747C105.598 69.3475 105.447 69.4801 105.249 69.5724C105.053 69.6648 104.815 69.7109 104.535 69.7109H103.575V69.093H104.411C104.558 69.093 104.68 69.0729 104.777 69.0327C104.874 68.9924 104.946 68.9321 104.993 68.8516C105.042 68.7711 105.066 68.671 105.066 68.5515C105.066 68.4308 105.042 68.329 104.993 68.2461C104.946 68.1632 104.873 68.1005 104.775 68.0579C104.678 68.0141 104.556 67.9922 104.408 67.9922H103.889V71H103.12ZM105.084 69.3452L105.988 71H105.139L104.255 69.3452H105.084ZM107.691 71H106.402V67.3636H107.701C108.067 67.3636 108.382 67.4364 108.646 67.582C108.91 67.7264 109.113 67.9342 109.255 68.2053C109.398 68.4763 109.47 68.8007 109.47 69.1783C109.47 69.5571 109.398 69.8826 109.255 70.1548C109.113 70.4271 108.909 70.636 108.642 70.7816C108.377 70.9272 108.06 71 107.691 71ZM107.17 70.3413H107.659C107.886 70.3413 108.077 70.301 108.232 70.2205C108.388 70.1388 108.506 70.0128 108.584 69.8423C108.663 69.6707 108.703 69.4493 108.703 69.1783C108.703 68.9096 108.663 68.69 108.584 68.5195C108.506 68.3491 108.389 68.2236 108.234 68.1431C108.079 68.0626 107.888 68.0224 107.66 68.0224H107.17V70.3413ZM112.012 68.4094C111.998 68.2662 111.937 68.1549 111.829 68.0756C111.721 67.9963 111.575 67.9567 111.39 67.9567C111.265 67.9567 111.159 67.9744 111.073 68.0099C110.986 68.0443 110.92 68.0922 110.874 68.1538C110.829 68.2153 110.806 68.2852 110.806 68.3633C110.804 68.4284 110.817 68.4852 110.847 68.5337C110.878 68.5823 110.92 68.6243 110.973 68.6598C111.026 68.6941 111.088 68.7243 111.158 68.7504C111.228 68.7752 111.302 68.7965 111.382 68.8143L111.708 68.8924C111.867 68.9279 112.012 68.9753 112.145 69.0344C112.278 69.0936 112.392 69.1664 112.489 69.2528C112.587 69.3393 112.662 69.4411 112.715 69.5582C112.769 69.6754 112.797 69.8098 112.798 69.9613C112.797 70.1838 112.74 70.3768 112.628 70.5401C112.517 70.7023 112.356 70.8284 112.145 70.9183C111.936 71.0071 111.683 71.0515 111.387 71.0515C111.093 71.0515 110.838 71.0065 110.62 70.9165C110.403 70.8266 110.234 70.6934 110.112 70.517C109.991 70.3395 109.928 70.1199 109.922 69.8583H110.666C110.674 69.9802 110.709 70.082 110.771 70.1637C110.833 70.2442 110.917 70.3052 111.021 70.3466C111.126 70.3868 111.245 70.407 111.378 70.407C111.508 70.407 111.621 70.388 111.717 70.3501C111.814 70.3123 111.889 70.2596 111.943 70.1921C111.996 70.1246 112.023 70.0471 112.023 69.9595C112.023 69.8778 111.998 69.8092 111.95 69.7536C111.902 69.6979 111.833 69.6506 111.74 69.6115C111.649 69.5724 111.537 69.5369 111.405 69.505L111.009 69.4055C110.702 69.331 110.46 69.2144 110.282 69.0558C110.105 68.8971 110.017 68.6835 110.018 68.4148C110.017 68.1946 110.075 68.0022 110.194 67.8377C110.313 67.6732 110.477 67.5447 110.686 67.4524C110.894 67.3601 111.131 67.3139 111.396 67.3139C111.666 67.3139 111.901 67.3601 112.102 67.4524C112.305 67.5447 112.462 67.6732 112.575 67.8377C112.687 68.0022 112.745 68.1928 112.749 68.4094H112.012ZM114.473 71V67.3636H116.88V67.9975H115.242V68.864H116.721V69.4979H115.242V71H114.473ZM120.739 69.1818C120.739 69.5784 120.664 69.9157 120.514 70.1939C120.365 70.4721 120.161 70.6845 119.903 70.8313C119.646 70.9769 119.357 71.0497 119.036 71.0497C118.713 71.0497 118.423 70.9763 118.166 70.8295C117.91 70.6828 117.707 70.4703 117.557 70.1921C117.408 69.9139 117.334 69.5772 117.334 69.1818C117.334 68.7853 117.408 68.4479 117.557 68.1697C117.707 67.8916 117.91 67.6797 118.166 67.5341C118.423 67.3873 118.713 67.3139 119.036 67.3139C119.357 67.3139 119.646 67.3873 119.903 67.5341C120.161 67.6797 120.365 67.8916 120.514 68.1697C120.664 68.4479 120.739 68.7853 120.739 69.1818ZM119.96 69.1818C119.96 68.925 119.921 68.7083 119.844 68.532C119.769 68.3556 119.661 68.2218 119.523 68.1307C119.384 68.0395 119.222 67.994 119.036 67.994C118.851 67.994 118.688 68.0395 118.55 68.1307C118.411 68.2218 118.304 68.3556 118.227 68.532C118.151 68.7083 118.113 68.925 118.113 69.1818C118.113 69.4387 118.151 69.6553 118.227 69.8317C118.304 70.008 118.411 70.1418 118.55 70.233C118.688 70.3241 118.851 70.3697 119.036 70.3697C119.222 70.3697 119.384 70.3241 119.523 70.233C119.661 70.1418 119.769 70.008 119.844 69.8317C119.921 69.6553 119.96 69.4387 119.96 69.1818ZM123.555 67.3636H124.324V69.7251C124.324 69.9903 124.26 70.2223 124.134 70.4212C124.008 70.62 123.832 70.7751 123.606 70.8864C123.38 70.9964 123.117 71.0515 122.816 71.0515C122.514 71.0515 122.25 70.9964 122.024 70.8864C121.798 70.7751 121.622 70.62 121.497 70.4212C121.371 70.2223 121.309 69.9903 121.309 69.7251V67.3636H122.078V69.6594C122.078 69.7979 122.108 69.921 122.168 70.0288C122.23 70.1365 122.316 70.2211 122.427 70.2827C122.539 70.3442 122.668 70.375 122.816 70.375C122.965 70.375 123.095 70.3442 123.205 70.2827C123.316 70.2211 123.402 70.1365 123.462 70.0288C123.524 69.921 123.555 69.7979 123.555 69.6594V67.3636ZM127.998 67.3636V71H127.334L125.752 68.7113H125.725V71H124.956V67.3636H125.631L127.201 69.6506H127.232V67.3636H127.998ZM129.922 71H128.633V67.3636H129.933C130.298 67.3636 130.613 67.4364 130.877 67.582C131.141 67.7264 131.344 67.9342 131.486 68.2053C131.63 68.4763 131.701 68.8007 131.701 69.1783C131.701 69.5571 131.63 69.8826 131.486 70.1548C131.344 70.4271 131.14 70.636 130.874 70.7816C130.609 70.9272 130.291 71 129.922 71ZM129.402 70.3413H129.89C130.117 70.3413 130.308 70.301 130.464 70.2205C130.62 70.1388 130.737 70.0128 130.815 69.8423C130.894 69.6707 130.934 69.4493 130.934 69.1783C130.934 68.9096 130.894 68.69 130.815 68.5195C130.737 68.3491 130.62 68.2236 130.465 68.1431C130.31 68.0626 130.119 68.0224 129.892 68.0224H129.402V70.3413Z" fill="#262626"/>
<path d="M13.7859 219.092C11.7556 215.047 9.06716 208.451 8.2807 199.912C7.06891 186.767 10.5679 171.15 18.7615 162.715C30.6065 150.525 44.8109 160.974 66.9843 158.069C108.731 152.588 109.999 108.763 155.461 98.2258C161.969 96.7171 192.601 90.5057 217.688 110.697C220.183 112.703 232.221 122.702 239.7 141.208C254.378 177.53 238.111 213.538 235.503 219.084C161.592 219.084 87.689 219.084 13.7779 219.092H13.7859Z" fill="#C9FDF3"/>
<path d="M54.3694 179.296C53.6632 179.649 52.4514 180.299 51.1032 181.326C47.0425 184.416 46.6251 187.192 42.8132 189.167C42.1953 189.488 40.8631 190.114 39.0575 190.402C36.2005 190.868 33.8412 190.234 32.5652 189.776C32.5652 189.776 28.7773 181.599 44.0411 177.129L44.6991 179.641C45.0763 178.943 45.4615 178.244 45.8387 177.554C46.6171 177.322 47.7727 177.081 49.1611 177.185C51.8013 177.386 53.623 178.694 54.3533 179.296H54.3694Z" fill="#31CCAF"/>
<path d="M48.0466 150.684C46.8749 154.728 45.0291 157.136 43.5284 158.604C41.2493 160.827 39.6282 161.004 36.2256 164.278C34.4039 166.028 33.2001 167.215 32.3334 169.149C30.9451 172.247 31.3142 175.264 31.6513 176.878C31.6513 176.878 38.3202 176.203 44.2347 170.987L42.5333 168.106L45.4304 169.655C45.4304 169.655 51.064 161.309 48.0466 150.684Z" fill="#31CCAF"/>
<path d="M27.1088 164.617C38.5767 161.559 42.3404 149.361 42.3404 149.361C41.9713 148.735 36.779 147.443 36.779 147.443L43.488 146.191C43.488 146.191 44.6677 144.273 43.7849 140.229C42.9022 136.2 45.4221 130.414 45.4221 130.414C40.5829 131.746 37.0118 133.704 34.7407 135.173C31.2497 137.428 25.9692 140.839 24.0432 147.09C23.65 148.366 23.4815 149.466 23.4092 150.204L25.8729 153.334L23.2969 152.234C23.3129 159.152 27.1088 164.609 27.1088 164.609V164.617Z" fill="#31CCAF"/>
<path d="M17.1654 171.519C17.1654 171.519 26.2578 152.507 0.232422 146.777C0.232422 146.777 3.21776 149.811 3.03318 156.014C2.8486 162.218 4.75055 163.149 4.75055 163.149L9.52548 162.29L5.73764 166.078C5.73764 166.078 11.1947 172.65 17.1654 171.519Z" fill="#31CCAF"/>
<path d="M0.962891 178.452C0.962891 178.452 18.0162 171.807 18.0323 187.063C18.0323 187.063 12.7678 192.263 7.27062 185L8.53056 182.063L6.16315 182.665C6.16315 182.665 2.74446 178.845 0.962891 178.46V178.452Z" fill="#31CCAF"/>
<path d="M25.0705 201.791H25.0865C25.2631 201.759 25.3754 201.59 25.3433 201.414C21.9407 183.783 7.24673 179.642 7.10227 179.602C6.93375 179.553 6.75719 179.658 6.70904 179.826C6.66089 179.995 6.76522 180.171 6.93375 180.22C7.0782 180.26 21.395 184.312 24.7174 201.534C24.7495 201.703 24.91 201.815 25.0785 201.791H25.0705Z" fill="#231F20"/>
<path d="M25.5282 205.199C25.6968 205.175 25.8252 205.022 25.8011 204.846C24.7739 194.702 22.4225 184.759 18.8032 175.289C16.1469 168.34 12.7924 161.615 8.83604 155.291C8.73974 155.138 8.54713 155.09 8.39466 155.186C8.24218 155.283 8.20206 155.475 8.29033 155.628C12.2307 161.911 15.5611 168.604 18.2013 175.514C21.7966 184.936 24.1399 194.822 25.1591 204.91C25.1751 205.087 25.3356 205.215 25.5122 205.199H25.5202H25.5282Z" fill="#231F20"/>
<path d="M26.5794 212.2C26.5794 212.2 26.5955 212.2 26.6035 212.2C26.78 212.168 26.8924 211.999 26.8523 211.822C24.1639 198.685 23.883 185.396 26.0177 172.339C27.3659 164.065 29.6931 155.928 32.9353 148.135C32.9995 147.975 32.9273 147.782 32.7587 147.718C32.5902 147.646 32.4056 147.726 32.3414 147.895C29.0832 155.727 26.7399 163.921 25.3837 172.243C23.241 185.38 23.5218 198.742 26.2263 211.959C26.2584 212.127 26.4189 212.232 26.5794 212.216V212.2Z" fill="#231F20"/>
<path d="M25.7445 206.645C25.913 206.621 26.0334 206.476 26.0173 206.308C25.4395 197.873 26.0735 181.976 36.8994 170.267C38.6087 168.421 40.5187 166.728 42.5891 165.235C42.7336 165.131 42.7657 164.93 42.6614 164.786C42.557 164.641 42.3564 164.609 42.212 164.714C40.1014 166.23 38.1593 167.948 36.4178 169.826C25.4315 181.719 24.7815 197.809 25.3753 206.348C25.3833 206.524 25.5358 206.661 25.7124 206.645C25.7124 206.645 25.7284 206.645 25.7364 206.645H25.7445Z" fill="#231F20"/>
<path d="M24.1478 206.853C24.2842 206.837 24.3966 206.732 24.4206 206.588C25.1108 202.319 27.0448 196.059 32.3013 190.506C35.3187 187.32 39.1066 184.784 43.2475 183.163C43.416 183.099 43.4963 182.914 43.4321 182.745C43.3679 182.585 43.1833 182.505 43.0148 182.561C38.7775 184.214 34.9094 186.806 31.8278 190.064C26.459 195.738 24.4848 202.126 23.7786 206.484C23.7465 206.66 23.8669 206.821 24.0435 206.853C24.0756 206.853 24.1077 206.853 24.1398 206.853H24.1478Z" fill="#231F20"/>
<path d="M12.752 203.258L15.8416 219.051H34.524L37.6217 203.258H12.752ZM13.8113 204.133H36.5464L33.8018 218.176H16.5719L13.8193 204.133H13.8113Z" fill="#231F20"/>
<path d="M13.8105 204.133L16.5632 218.177H33.8011L36.5456 204.133H13.8105Z" fill="white"/>
<path d="M12.5758 203.258H37.7827C38.1358 203.258 38.4487 203.025 38.545 202.688L39.5963 199.109C39.7488 198.595 39.3636 198.09 38.834 198.09H11.5245C10.9949 198.09 10.6097 198.603 10.7622 199.109L11.8135 202.688C11.9098 203.025 12.2227 203.258 12.5758 203.258Z" fill="#31CCAF"/>
<path d="M5.45588 220.002H244.05C244.556 220.002 244.965 219.592 244.965 219.087C244.965 218.581 244.556 218.172 244.05 218.172H5.45588C4.9503 218.172 4.54102 218.581 4.54102 219.087C4.54102 219.592 4.9503 220.002 5.45588 220.002Z" fill="#231F20"/>
<path d="M180.493 204.653L180.099 213.224L174.723 212.494L175.509 202.414L180.493 204.653Z" fill="white"/>
<path d="M180.043 213.601L174.666 212.871C174.466 212.847 174.321 212.662 174.337 212.461L175.124 202.382C175.132 202.261 175.204 202.149 175.308 202.085C175.413 202.021 175.549 202.013 175.661 202.069L180.645 204.308C180.789 204.372 180.878 204.516 180.87 204.677L180.476 213.24C180.476 213.344 180.42 213.448 180.34 213.513C180.268 213.569 180.187 213.601 180.099 213.601C180.083 213.601 180.067 213.601 180.051 213.601H180.043ZM175.846 202.992L175.132 212.164L179.73 212.79L180.091 204.902L175.838 202.992H175.846Z" fill="#231F20"/>
<path d="M215.417 206.396L216.372 211.709H211.669L210.602 205.16L215.417 206.396Z" fill="white"/>
<path d="M211.292 211.771L210.225 205.223C210.201 205.094 210.249 204.966 210.345 204.878C210.442 204.79 210.57 204.757 210.698 204.79L215.513 206.017C215.658 206.057 215.77 206.17 215.794 206.322L216.741 211.643C216.765 211.755 216.733 211.868 216.661 211.956C216.589 212.044 216.484 212.092 216.364 212.092H211.661C211.477 212.092 211.316 211.956 211.284 211.771H211.292ZM215.088 206.699L211.076 205.672L211.99 211.322H215.907L215.08 206.691L215.088 206.699Z" fill="#231F20"/>
<path d="M210.199 211.724V217.43H225.648C225.583 217.085 225.439 216.579 225.11 216.074C224.283 214.798 222.871 214.397 222.197 214.164C220.889 213.722 219.051 212.856 216.804 210.93H210.994C210.56 210.93 210.199 211.283 210.199 211.724Z" fill="#231F20"/>
<path d="M161.961 217.591H181.213C181.165 215.673 181.125 213.755 181.077 211.828C181.077 211.387 180.708 211.026 180.258 211.018C178.124 210.994 175.989 210.962 173.854 210.93C173.638 210.93 173.437 211.002 173.269 211.138C172.113 212.085 170.628 213.121 168.815 214.068C166.68 215.167 164.682 215.833 163.028 216.242C162.403 216.403 161.961 216.949 161.953 217.591H161.961Z" fill="#231F20"/>
<path d="M210.199 217.438V218.489H225.648V217.59C225.648 217.534 225.648 217.478 225.639 217.43H210.199V217.438Z" fill="#231F20"/>
<path d="M161.961 217.59V218.489C168.389 218.561 174.809 218.641 181.237 218.713C181.237 218.344 181.221 217.967 181.213 217.59H161.961Z" fill="#231F20"/>
<path d="M181.213 217.59C181.213 217.959 181.229 218.336 181.237 218.713V217.59H181.213Z" fill="#231F20"/>
<path d="M216.805 207.53L209.687 151.37L204.39 98.4766H175.484L174.096 157.541V206.583C176.632 206.952 179.16 207.313 181.695 207.682C183.3 190.332 184.906 172.99 186.511 155.639C187.73 146.13 188.95 136.62 190.17 127.11C192.561 137.045 194.953 146.972 197.344 156.907C201.245 173.832 205.153 190.757 209.053 207.682C211.637 207.634 214.221 207.586 216.797 207.53H216.805Z" fill="#231F20"/>
<path d="M203.106 103.587L200.562 106.019C200.627 106.532 200.827 107.608 201.622 108.667C202.649 110.039 204.021 110.513 204.503 110.649L204.96 107.68L206.485 105.208L203.829 103.25L203.123 103.595L203.106 103.587Z" fill="white"/>
<path d="M204.39 111.012C203.676 110.803 202.335 110.249 201.316 108.885C200.538 107.85 200.273 106.775 200.185 106.06C200.169 105.94 200.217 105.82 200.297 105.739L202.841 103.308C202.841 103.308 202.905 103.26 202.937 103.243L203.644 102.898C203.772 102.834 203.924 102.85 204.037 102.939L206.693 104.897C206.854 105.017 206.894 105.234 206.789 105.402L205.313 107.81L204.871 110.707C204.855 110.819 204.791 110.915 204.703 110.972C204.639 111.012 204.566 111.028 204.494 111.028C204.454 111.028 204.422 111.028 204.39 111.012ZM203.772 103.685L203.323 103.902L200.963 106.157C201.059 106.775 201.308 107.617 201.918 108.428C202.632 109.383 203.531 109.88 204.181 110.137L204.566 107.617C204.566 107.569 204.59 107.521 204.623 107.473L205.963 105.298L203.772 103.685Z" fill="#231F20"/>
<path d="M184.842 50.0033C185.355 50.3243 186.407 50.6854 188.485 49.8749C188.212 52.9164 187.939 55.9499 187.659 58.9914C189.954 59.7699 192.249 60.5403 194.544 61.3187C196.181 60.1631 197.826 59.0075 199.463 57.8599C199.062 57.2821 198.517 56.4073 198.067 55.2517C197.513 53.8072 197.377 52.6115 197.273 51.5281C197.12 49.8428 196.952 47.2427 196.984 43.8481C198.589 43.1659 199.608 41.9541 199.52 40.8226C199.512 40.6782 199.447 39.9318 198.829 39.4664C198.075 38.9046 197.12 39.2336 197.032 39.2657C196.687 37.8052 196.35 36.3526 196.005 34.8921L190.034 34.4748L184.055 33.9531C183.895 35.4779 183.71 37.6126 183.59 40.1726C183.213 48.3421 184.071 49.5218 184.834 49.9953L184.842 50.0033Z" fill="white" stroke="#231F20" stroke-linejoin="round"/>
<path d="M153.31 61.2449C153.23 60.7473 153.037 60.009 152.451 59.4954C151.641 58.7812 150.662 58.9898 149.779 58.7892C148.8 58.5725 147.492 57.7138 146.28 54.7526C146.256 54.7124 145.975 54.2871 146.152 53.918C146.32 53.5649 146.778 53.5087 146.882 53.4926C147.757 53.3803 148.214 54.4396 149.33 55.1699C150.854 56.165 152.893 56.478 153.294 55.9002C153.695 55.3224 152.347 54.0464 152.612 53.7815C152.949 53.4525 155.493 55.0174 156.271 56.8551C156.352 57.0397 156.584 57.6416 156.817 58.3799C156.994 58.9577 157.122 59.4392 157.202 59.7923C155.902 60.2738 154.61 60.7634 153.31 61.2449Z" fill="white"/>
<path d="M153.118 61.5744C153.022 61.5182 152.95 61.4139 152.934 61.3015C152.829 60.6274 152.58 60.1218 152.195 59.7848C151.73 59.3755 151.192 59.3274 150.574 59.2792C150.285 59.2551 149.988 59.2311 149.691 59.1669C148.223 58.8378 146.955 57.4174 145.936 54.9376C145.839 54.7852 145.558 54.2635 145.807 53.7579C145.976 53.4129 146.337 53.1801 146.834 53.124C147.549 53.0357 148.038 53.5092 148.544 54.0067C148.825 54.2876 149.146 54.6006 149.539 54.8574C151.08 55.8605 152.797 55.9648 152.982 55.684C153.07 55.5556 152.693 54.9537 152.572 54.7531C152.284 54.2876 152.011 53.8462 152.348 53.5172C152.492 53.3808 152.693 53.3326 152.95 53.3808C153.8 53.5493 155.887 54.9778 156.625 56.7112C156.721 56.9279 156.954 57.5378 157.187 58.2761C157.331 58.7496 157.468 59.2391 157.58 59.7126C157.62 59.8971 157.524 60.0897 157.339 60.1539L153.447 61.6065C153.407 61.6225 153.359 61.6306 153.311 61.6306C153.247 61.6306 153.174 61.6145 153.118 61.5744ZM156.457 58.4928C156.24 57.7865 156.015 57.2087 155.927 57.0001C155.381 55.708 153.937 54.6407 153.174 54.2635C153.19 54.2956 153.206 54.3197 153.222 54.3438C153.56 54.8895 153.977 55.5796 153.608 56.1093C153.006 56.9921 150.654 56.4865 149.122 55.4833C148.664 55.1864 148.311 54.8413 148.006 54.5364C147.533 54.0629 147.268 53.8221 146.931 53.8623C146.706 53.8944 146.546 53.9666 146.497 54.0709C146.425 54.2234 146.554 54.4722 146.594 54.5284C146.61 54.5524 146.626 54.5765 146.634 54.6006C147.557 56.8556 148.64 58.1316 149.86 58.4045C150.101 58.4607 150.366 58.4767 150.638 58.5008C151.296 58.557 152.043 58.6131 152.709 59.1909C153.134 59.5681 153.431 60.0737 153.6 60.7157L156.762 59.536C156.673 59.1829 156.577 58.8298 156.465 58.4767L156.457 58.4928Z" fill="#231F20"/>
<path d="M153.021 60.8544C153.407 62.4915 153.792 64.1286 154.185 65.7657C154.249 66.0225 154.306 66.2793 154.37 66.5442C154.875 68.6949 155.389 70.8456 155.894 72.9963C155.951 73.2531 156.015 73.5099 156.079 73.7748C156.585 75.9255 157.098 78.0762 157.604 80.2269C157.66 80.4838 157.724 80.7406 157.788 81.0054C158.294 83.1561 158.808 85.3068 159.313 87.4576C159.313 87.4736 159.313 87.4897 159.321 87.4977C159.385 87.7705 159.482 88.0113 159.61 88.228C160.477 89.6885 162.644 89.9614 163.815 88.5169L164.048 88.228L164.674 87.4495L169.874 80.9974L170.5 80.2189L174.641 75.0748C174.786 76.7601 174.922 78.4775 175.034 80.2189C175.05 80.4757 175.066 80.7325 175.082 80.9974C175.211 83.0999 175.315 85.2587 175.387 87.4495C175.395 87.7063 175.403 87.9631 175.411 88.228C175.444 89.199 175.468 90.1861 175.484 91.1812C175.5 92.3609 175.516 93.5326 175.516 94.6882C175.516 94.945 175.516 95.2098 175.516 95.4666C175.516 97.0154 175.5 98.5482 175.46 100.049C179.32 100.892 184.159 101.614 189.768 101.694C195.595 101.774 200.634 101.132 204.615 100.346C204.414 98.8612 204.246 97.2241 204.141 95.4666C204.125 95.2098 204.109 94.953 204.093 94.6882C203.989 92.6899 203.965 90.5312 204.053 88.236C204.061 87.9792 204.077 87.7224 204.093 87.4576C204.141 86.4705 204.222 85.4593 204.318 84.4241C204.43 83.2444 204.567 82.1048 204.727 81.0054C204.767 80.7486 204.799 80.4838 204.848 80.2269C205.217 77.8916 205.666 75.7329 206.172 73.7748C206.236 73.5099 206.308 73.2531 206.372 72.9963C206.509 72.4747 206.653 71.9691 206.798 71.4796C206.886 71.1425 206.99 70.8296 207.087 70.5086C207.135 70.6209 207.183 70.7413 207.231 70.8536C207.528 71.5679 207.817 72.2821 208.114 72.9963C208.218 73.2531 208.322 73.5099 208.435 73.7748C209.318 75.9255 210.208 78.0762 211.099 80.2269C211.203 80.4838 211.308 80.7406 211.42 81.0054C212.062 82.5623 212.704 84.1111 213.346 85.668C213.587 86.2458 213.619 86.8717 213.458 87.4576C213.386 87.7304 213.274 87.9872 213.113 88.236C213.097 88.2601 213.081 88.2922 213.065 88.3162L208.684 94.6962L208.154 95.4746L203.716 101.927L203.186 102.705L202.769 103.315C204.928 105.016 204.053 104.326 206.22 106.028L209.189 102.705L209.879 101.927L215.649 95.4746L216.348 94.6962L221.676 88.7416C221.813 88.5891 221.941 88.4206 222.045 88.244C222.134 88.0915 222.214 87.931 222.278 87.7625C222.31 87.6742 222.342 87.5699 222.374 87.4736C222.414 87.3452 222.447 87.2168 222.479 87.0724C222.535 86.8316 222.567 86.5989 222.591 86.3822C222.631 85.997 222.583 85.6118 222.471 85.2426L221.235 81.0134L221.01 80.235L219.116 73.7828L218.891 73.0044L216.998 66.5522L216.773 65.7738L215.601 61.7773C215.336 60.8784 214.919 60.0438 214.373 59.3136C214.173 59.0407 213.948 58.7839 213.707 58.5351C212.921 57.7246 211.95 57.0906 210.85 56.6893C206.372 55.0442 201.886 53.3991 197.4 51.7539C197.352 52.1231 197.127 53.4071 196.004 54.4102C194.736 55.5337 193.235 55.4856 192.898 55.4776C190.731 55.4535 188.789 53.9769 188.171 51.8422C183.806 53.4954 179.44 55.1565 175.082 56.8097C174.28 57.1307 173.606 57.7085 173.164 58.4468L173.108 58.5351L172.643 59.3136L168.791 65.7657L168.325 66.5442L164.473 72.9963L164.008 73.7748L163.719 74.2643C163.655 74.1038 163.591 73.9353 163.526 73.7748L163.213 72.9963C162.355 70.8456 161.504 68.6949 160.645 66.5442C160.541 66.2874 160.437 66.0306 160.332 65.7657C159.482 63.631 158.631 61.4964 157.78 59.3537C154.835 60.2846 155.983 59.9235 153.038 60.8544H153.021Z" fill="#31CCAF"/>
<path d="M205.964 106.316L202.513 103.603C202.353 103.475 202.321 103.25 202.433 103.09L203.966 100.859C199.287 101.733 194.52 102.135 189.769 102.07C184.946 102.006 180.107 101.444 175.388 100.417C175.212 100.377 175.083 100.217 175.091 100.04C175.124 98.5394 175.14 97.0146 175.148 95.4577V94.6873C175.148 93.5317 175.14 92.3681 175.116 91.1884C175.099 90.1933 175.075 89.2142 175.043 88.2432L175.019 87.4728C174.947 85.3541 174.843 83.1874 174.714 81.0286L174.666 80.2502C174.578 78.8699 174.474 77.4655 174.353 76.0611L164.129 88.7568C163.511 89.5192 162.596 89.9204 161.633 89.8562C160.662 89.784 159.788 89.2543 159.298 88.4277C159.146 88.1709 159.033 87.8901 158.953 87.545L157.244 80.3144C156.73 78.1637 156.224 76.0129 155.719 73.8622L152.669 60.9418C152.621 60.7492 152.734 60.5486 152.926 60.4924L157.669 58.9917C157.862 58.9275 158.062 59.0318 158.142 59.2164L163.784 73.3967L172.307 59.1121L172.828 58.2454C173.318 57.4268 174.048 56.8008 174.939 56.4477C179.064 54.8909 183.189 53.3179 187.314 51.7531L188.028 51.4802C188.132 51.4401 188.237 51.4481 188.333 51.4963C188.429 51.5444 188.501 51.6327 188.533 51.729C189.103 53.6871 190.901 55.0674 192.923 55.0915C194.328 55.1396 195.234 54.5859 195.748 54.1205C196.719 53.2538 196.96 52.1383 197.016 51.6969C197.032 51.5845 197.096 51.4802 197.201 51.416C197.305 51.3518 197.425 51.3438 197.53 51.3839L210.98 56.3193C212.111 56.7366 213.146 57.4027 213.973 58.2534C214.222 58.5022 214.463 58.775 214.679 59.0719C215.265 59.8504 215.698 60.7251 215.971 61.656L222.841 85.1214C222.969 85.5467 223.009 85.9801 222.969 86.4054C222.945 86.6301 222.913 86.8789 222.857 87.1357C222.825 87.2882 222.785 87.4326 222.744 87.5691C222.712 87.6814 222.672 87.7857 222.64 87.882C222.576 88.0666 222.488 88.2512 222.375 88.4358C222.263 88.6284 222.118 88.821 221.966 88.9975L206.51 106.284C206.437 106.364 206.333 106.412 206.221 106.412C206.141 106.412 206.052 106.388 205.988 106.332L205.964 106.316ZM196.238 54.6902C195.62 55.244 194.536 55.886 192.875 55.8539C190.676 55.8298 188.694 54.4013 187.916 52.3309L187.578 52.4593C183.454 54.0242 179.329 55.5891 175.204 57.1539C174.474 57.4429 173.88 57.9565 173.47 58.6306L164.033 74.448C163.961 74.5764 163.832 74.6406 163.672 74.6326C163.527 74.6246 163.399 74.5283 163.351 74.3919L157.557 59.8183L153.488 61.1023L156.457 73.6776C156.963 75.8283 157.476 77.9791 157.982 80.1378L159.699 87.4086C159.755 87.6333 159.836 87.8419 159.948 88.0345C160.309 88.6444 160.951 89.0377 161.682 89.0858C162.404 89.134 163.07 88.8451 163.527 88.2753L174.353 74.8413C174.449 74.7209 174.618 74.6727 174.762 74.7129C174.915 74.761 175.019 74.8894 175.035 75.0419C175.188 76.7673 175.324 78.5007 175.428 80.194L175.477 80.9724C175.613 83.1392 175.717 85.314 175.782 87.4407L175.806 88.2191C175.838 89.1982 175.862 90.1852 175.878 91.1804C175.894 92.3601 175.91 93.5317 175.91 94.6873V95.4658C175.91 96.9103 175.894 98.3387 175.862 99.7431C180.436 100.722 185.115 101.252 189.785 101.316C194.608 101.38 199.456 100.955 204.198 100.048C204.006 98.5394 203.861 97.0066 203.765 95.4979C203.749 95.2411 203.733 94.9843 203.717 94.7194C203.605 92.5767 203.597 90.3939 203.677 88.2271V88.1067C203.693 87.8901 203.701 87.6654 203.717 87.4487C203.765 86.4536 203.845 85.4264 203.942 84.3992C204.046 83.2596 204.19 82.104 204.359 80.9564C204.399 80.6916 204.439 80.4348 204.479 80.178C204.824 77.9951 205.266 75.8123 205.812 73.6856L206.012 72.9072C206.149 72.3936 206.293 71.8961 206.429 71.4065C206.429 71.3985 206.429 71.3824 206.429 71.3744C206.518 71.0695 206.606 70.7806 206.694 70.4836L206.718 70.4034C206.766 70.2509 206.903 70.1386 207.063 70.1305C207.224 70.1225 207.376 70.2188 207.433 70.3633L208.781 73.6295C209.664 75.7802 210.554 77.9309 211.445 80.0897C211.549 80.3465 211.654 80.6033 211.766 80.8601C212.408 82.417 213.05 83.9658 213.692 85.5227C213.957 86.1727 214.005 86.8709 213.821 87.561C213.732 87.874 213.604 88.1709 213.443 88.4277C213.419 88.4679 213.395 88.5 213.379 88.5321L203.268 103.234L206.157 105.505L221.372 88.4839C221.493 88.3475 221.605 88.195 221.693 88.0425C221.781 87.9061 221.846 87.7697 221.894 87.6172C221.926 87.5289 221.958 87.4407 221.982 87.3524C222.014 87.232 222.054 87.1116 222.078 86.9752C222.135 86.7505 222.159 86.5338 222.183 86.3412C222.215 86.0202 222.183 85.6832 222.078 85.3461L215.209 61.8807C214.96 61.0381 214.567 60.2516 214.037 59.5454C213.845 59.2806 213.628 59.0398 213.403 58.8071C212.649 58.0367 211.71 57.4268 210.691 57.0496L197.666 52.2747C197.514 52.9167 197.136 53.8958 196.238 54.6983V54.6902ZM213.066 88.3074L212.793 88.0265C212.922 87.8259 213.026 87.5931 213.09 87.3604C213.227 86.8388 213.195 86.3091 212.994 85.8116C212.352 84.2547 211.71 82.6978 211.068 81.149C210.956 80.8922 210.851 80.6274 210.747 80.3706C209.856 78.2198 208.973 76.0691 208.091 73.9184L207.152 71.6473C207.015 72.1127 206.879 72.5942 206.75 73.0918L206.55 73.8622C206.012 75.9648 205.571 78.1235 205.234 80.2823C205.194 80.5391 205.153 80.7959 205.121 81.0527C204.953 82.1842 204.816 83.3318 204.712 84.4553C204.616 85.4745 204.544 86.4857 204.487 87.4728C204.471 87.6894 204.463 87.9061 204.455 88.1228V88.2432C204.367 90.3859 204.375 92.5446 204.487 94.6632C204.503 94.9201 204.519 95.1769 204.536 95.4337C204.624 96.7819 204.744 98.1461 204.913 99.5024L212.761 88.0907L213.074 88.3074H213.066Z" fill="#231F20"/>
<path d="M180.01 32.6127C180.138 32.067 180.877 32.0188 182.425 31.1281C184.183 30.1169 184.496 29.4508 185.579 28.7125C188.597 26.6661 192.553 27.5007 193.002 27.597C195.795 28.231 197.472 29.8681 198.572 30.9355C199.776 32.1071 199.992 32.7732 200.057 32.9738C200.739 35.1968 199.069 37.6204 198.941 37.7969C198.042 39.0649 197.641 39.2976 197.328 40.3409C197.272 40.5174 197.159 40.9508 196.991 40.9508C196.814 40.9508 196.67 40.4612 196.558 40.06C196.365 39.3618 196.309 38.8562 196.253 38.2543C196.18 37.5321 196.221 37.2432 196.028 36.7777C196.028 36.7777 195.851 36.3604 195.53 35.9993C194.495 34.8597 189.126 37.4518 184.616 36.3042C181.984 35.6301 179.785 33.6319 180.026 32.5967L180.01 32.6127Z" fill="#1A2E35"/>
<path d="M192.32 41.158C192.264 41.5111 191.975 41.7679 191.662 41.7197C191.349 41.6716 191.14 41.3506 191.197 40.9894C191.253 40.6363 191.542 40.3795 191.855 40.4277C192.168 40.4758 192.376 40.7968 192.32 41.158Z" fill="#231F20"/>
<path d="M186.977 40.5496C186.92 40.9429 186.624 41.2157 186.311 41.1676C185.998 41.1194 185.797 40.7663 185.853 40.3811C185.909 39.9959 186.206 39.715 186.519 39.7632C186.832 39.8113 187.033 40.1644 186.977 40.5496Z" fill="#231F20"/>
<path d="M193.749 40.1955C193.805 40.1955 193.869 40.1794 193.917 40.1473C194.054 40.051 194.094 39.8664 193.998 39.722C193.949 39.6497 192.842 38.0367 191.036 38.5022C190.876 38.5423 190.78 38.7108 190.82 38.8713C190.86 39.0318 191.028 39.1281 191.189 39.088C192.569 38.7269 193.484 40.051 193.492 40.059C193.548 40.1473 193.644 40.1955 193.749 40.1955Z" fill="#231F20"/>
<path d="M188.139 39.0252C188.219 39.0252 188.307 38.9931 188.363 38.9209C188.476 38.7925 188.46 38.5999 188.339 38.4875C186.951 37.2517 185.218 38.1906 185.145 38.2307C185.001 38.311 184.945 38.4956 185.025 38.64C185.105 38.7845 185.29 38.8406 185.442 38.7604C185.498 38.7283 186.871 37.998 187.938 38.9369C187.994 38.9851 188.067 39.0092 188.139 39.0092V39.0252Z" fill="#231F20"/>
<path d="M189.128 44.8982C189.256 44.8982 189.368 44.818 189.417 44.6976C189.473 44.5371 189.392 44.3686 189.232 44.3124L187.691 43.7747C189.2 41.2307 189.216 41.1665 189.232 41.1344C189.288 40.9739 189.2 40.8054 189.039 40.7492C188.887 40.7011 188.726 40.7733 188.662 40.9178C188.582 41.0783 187.611 42.7154 186.977 43.7907C186.929 43.871 186.921 43.9673 186.953 44.0475C186.985 44.1358 187.049 44.2 187.137 44.2321L189.023 44.8902C189.023 44.8902 189.088 44.9062 189.128 44.9062V44.8982Z" fill="#231F20"/>
<path d="M188.596 46.8975C188.901 46.8975 189.142 46.8734 189.206 46.8734C189.383 46.8574 189.511 46.729 189.487 46.5845C189.463 46.4401 189.302 46.3438 189.126 46.3598C188.484 46.424 187.449 46.3759 187.28 46.0709C187.208 45.9425 187.015 45.8783 186.847 45.9345C186.678 45.9907 186.606 46.1432 186.678 46.2716C186.967 46.7932 187.938 46.8895 188.588 46.8895L188.596 46.8975Z" fill="#231F20"/>
</g>
<defs>
<clipPath id="clip0_1955_51021">
<rect width="245.536" height="220" fill="white" transform="translate(0.232422)"/>
</clipPath>
</defs>
</svg>
