<svg width="40" height="40" viewBox="0 0 40 40" fill="none" xmlns="http://www.w3.org/2000/svg">
<path d="M20.4749 9.9374C20.1635 10.019 19.8363 10.019 19.5249 9.9374L12.4999 8.0874V10.0624C11.7942 10.2094 11.161 10.5959 10.7076 11.1564C10.2542 11.7168 10.0086 12.4168 10.0122 13.1377C10.0159 13.8585 10.2687 14.556 10.7278 15.1118C11.1869 15.6676 11.824 16.0476 12.5312 16.1874C12.7018 18.0503 13.5624 19.7823 14.9442 21.0433C16.326 22.3043 18.1292 23.0035 19.9999 23.0035C21.8706 23.0035 23.6738 22.3043 25.0556 21.0433C26.4374 19.7823 27.2981 18.0503 27.4687 16.1874C28.1751 16.044 28.8102 15.6607 29.2664 15.1026C29.7226 14.5444 29.9718 13.8457 29.9718 13.1249C29.9718 12.4041 29.7226 11.7054 29.2664 11.1472C28.8102 10.5891 28.1751 10.2058 27.4687 10.0624V8.0874L20.4749 9.9374ZM11.2499 13.1249C11.251 12.7381 11.3717 12.361 11.5955 12.0455C11.8193 11.7299 12.1352 11.4913 12.4999 11.3624V14.8874C12.1352 14.7585 11.8193 14.5199 11.5955 14.2043C11.3717 13.8888 11.251 13.5117 11.2499 13.1249ZM19.9999 21.8749C18.3423 21.8749 16.7526 21.2164 15.5805 20.0443C14.4084 18.8722 13.7499 17.2825 13.7499 15.6249V11.8749H26.2499V15.6249C26.2499 17.2825 25.5914 18.8722 24.4193 20.0443C23.2472 21.2164 21.6575 21.8749 19.9999 21.8749ZM28.7499 13.1249C28.7488 13.5117 28.6281 13.8888 28.4043 14.2043C28.1805 14.5199 27.8646 14.7585 27.4999 14.8874V11.3624C27.8646 11.4913 28.1805 11.7299 28.4043 12.0455C28.6281 12.361 28.7488 12.7381 28.7499 13.1249Z" fill="#9E8D71"/>
<path d="M7.96866 5.62478L19.8437 8.74978C19.9463 8.7747 20.0535 8.7747 20.1562 8.74978L32.0312 5.62478C32.1969 5.62478 32.3559 5.55893 32.4731 5.44172C32.5903 5.32451 32.6562 5.16554 32.6562 4.99978C32.6562 4.83402 32.5903 4.67505 32.4731 4.55784C32.3559 4.44062 32.1969 4.37478 32.0312 4.37478L20.1562 1.87478C20.0697 1.85619 19.9802 1.85619 19.8937 1.87478L8.01866 4.37478C7.8529 4.36815 7.6913 4.42764 7.5694 4.54016C7.4475 4.65268 7.37529 4.80902 7.36866 4.97478C7.36203 5.14054 7.42152 5.30214 7.53405 5.42404C7.64657 5.54594 7.8029 5.61815 7.96866 5.62478Z" fill="#9E8D71"/>
<path d="M35.3375 28.7064C35.0459 27.8398 34.5474 27.0574 33.8853 26.4268C33.2231 25.7963 32.4173 25.3366 31.5375 25.0877C31.1437 25.0002 24.7812 23.7502 23.7 23.5439C22.5433 24.0913 21.2796 24.3752 20 24.3752C18.7203 24.3752 17.4566 24.0913 16.3 23.5439C14.9062 23.8127 8.86246 24.9689 8.45621 25.0877C7.57157 25.3408 6.76252 25.8071 6.10001 26.4456C5.43749 27.0842 4.94174 27.8755 4.65621 28.7502C4.36871 29.5877 4.49996 29.3752 3.12496 37.4377C3.1162 37.5249 3.12586 37.6129 3.15332 37.6961C3.18078 37.7793 3.22543 37.8558 3.28436 37.9206C3.3433 37.9854 3.4152 38.0372 3.49541 38.0724C3.57562 38.1076 3.66235 38.1256 3.74996 38.1252C18.3062 38.1252 17.275 38.1939 17.5375 37.9627C17.9437 37.6127 17.8875 38.3752 15.8625 25.7939C19.5625 28.4439 19.5 28.7002 20 28.6002C20.5 28.7002 20.4125 28.4564 24.1375 25.7939C22.2062 37.7939 21.9812 37.7752 22.6 38.0689C22.7875 38.1564 21.975 38.1252 36.25 38.1252C36.3418 38.1265 36.4328 38.1076 36.5165 38.0698C36.6002 38.032 36.6745 37.9762 36.7342 37.9063C36.7938 37.8365 36.8374 37.7544 36.8617 37.6658C36.8861 37.5773 36.8906 37.4845 36.875 37.3939C35.525 29.5377 35.625 29.5564 35.3375 28.7064Z" fill="#9E8D71"/>
</svg>
