<svg width="24" height="24" viewBox="0 0 24 24" fill="none" xmlns="http://www.w3.org/2000/svg">
<g id="vuesax/bulk/notification">
<g id="notification">
<path id="Vector" opacity="0.4" d="M18.9116 14.7484L18.913 14.7506C19.2233 15.2598 19.2775 15.8588 19.0721 16.4041C18.8637 16.957 18.4355 17.3741 17.8839 17.5554L17.8839 17.5554L17.8811 17.5563C15.9942 18.1885 14.0079 18.5004 12.0199 18.5004C10.032 18.5004 8.04657 18.1885 6.16098 17.547L6.15998 17.5467C5.54292 17.3382 5.10185 16.9176 4.92065 16.4118L4.92067 16.4118L4.91923 16.4079C4.7272 15.8855 4.78757 15.3029 5.11856 14.7479C5.11879 14.7475 5.11902 14.7471 5.11925 14.7467L6.12778 13.0791L6.12784 13.0792L6.13183 13.0723C6.2675 12.8397 6.38148 12.5285 6.46118 12.2353C6.54078 11.9425 6.59994 11.6173 6.59994 11.3504V8.82039C6.59994 5.83598 9.02664 3.40039 12.0199 3.40039C15.0133 3.40039 17.4399 5.83598 17.4399 8.82039V11.3504C17.4399 11.6173 17.4991 11.9425 17.5786 12.236C17.6583 12.5307 17.7717 12.8421 17.9051 13.0772L17.905 13.0773L17.9117 13.0884L18.9116 14.7484Z" fill="#EC4751" stroke="#EC4751"/>
<g id="Vector_2">
<mask id="path-2-inside-1_3727_46786" fill="white">
<path d="M14.2498 3.32C13.5598 3.05 12.8098 2.9 12.0198 2.9C11.2398 2.9 10.4898 3.04 9.7998 3.32C10.2298 2.51 11.0798 2 12.0198 2C12.9698 2 13.8098 2.51 14.2498 3.32Z"/>
</mask>
<path d="M14.2498 3.32C13.5598 3.05 12.8098 2.9 12.0198 2.9C11.2398 2.9 10.4898 3.04 9.7998 3.32C10.2298 2.51 11.0798 2 12.0198 2C12.9698 2 13.8098 2.51 14.2498 3.32Z" fill="#EC4751"/>
<path d="M14.2498 3.32L13.8854 4.25124L16.4358 5.24922L15.1285 2.84267L14.2498 3.32ZM9.7998 3.32L8.91655 2.85111L7.62655 5.2811L10.1758 4.24661L9.7998 3.32ZM14.6142 2.38876C13.8113 2.07456 12.9379 1.9 12.0198 1.9V3.9C12.6817 3.9 13.3083 4.02544 13.8854 4.25124L14.6142 2.38876ZM12.0198 1.9C11.1197 1.9 10.2411 2.06171 9.42379 2.39339L10.1758 4.24661C10.7385 4.01829 11.3599 3.9 12.0198 3.9V1.9ZM10.6831 3.78889C10.9368 3.31096 11.4438 3 12.0198 3V1C10.7158 1 9.52283 1.70904 8.91655 2.85111L10.6831 3.78889ZM12.0198 3C12.6018 3 13.1054 3.30814 13.3711 3.79733L15.1285 2.84267C14.5143 1.71186 13.3378 1 12.0198 1V3Z" fill="#EC4751" mask="url(#path-2-inside-1_3727_46786)"/>
</g>
<path id="Vector_3" d="M10.0957 20.6143C10.1462 20.6193 10.1968 20.6239 10.2476 20.6282C10.8291 20.6792 11.4235 20.71 12.0202 20.71C12.6075 20.71 13.1926 20.6791 13.7646 20.628L13.7646 20.628L13.7676 20.6277C13.8106 20.6237 13.8582 20.6197 13.9088 20.6156C13.4475 21.1572 12.7623 21.5 12.0002 21.5C11.3412 21.5 10.6926 21.2319 10.24 20.7628L10.2313 20.7538L10.2221 20.7452C10.1784 20.7042 10.1362 20.6604 10.0957 20.6143Z" fill="#EC4751" stroke="#EC4751"/>
</g>
</g>
</svg>
