<svg width="21" height="21" viewBox="0 0 21 21" fill="none" xmlns="http://www.w3.org/2000/svg">
<path d="M18.0415 3.89968C14.1383 -0.00354838 7.80262 -0.00354838 3.89939 3.89968C-0.0038384 7.80291 -0.00383806 14.1386 3.89939 18.0418C7.80262 21.945 14.1383 21.945 18.0415 18.0418C21.9448 14.1386 21.9448 7.80291 18.0415 3.89968ZM13.4453 13.488C13.2332 13.488 13.0494 13.4032 12.915 13.2688C12.7807 13.1345 12.6958 12.9506 12.6958 12.7385L12.6958 10.3061L9.02592 13.976C8.736 14.2659 8.25517 14.2659 7.96526 13.976C7.67534 13.686 7.67534 13.2052 7.96526 12.9153L11.6351 9.24541L9.20269 9.24541C8.79257 9.24541 8.45316 8.906 8.45316 8.49587C8.45316 8.08575 8.79257 7.74634 9.20269 7.74634L13.4453 7.74634C13.8555 7.74634 14.1949 8.08575 14.1949 8.49587L14.1949 12.7385C14.1949 13.1486 13.8555 13.488 13.4453 13.488Z" fill="#18B557"/>
</svg>
