<svg width="20" height="20" viewBox="0 0 20 20" fill="none" xmlns="http://www.w3.org/2000/svg">
<g id="vuesax/linear/video-play">
<g id="video-play">
<path id="Vector" d="M18.3327 12.4993V7.49935C18.3327 3.33268 16.666 1.66602 12.4993 1.66602H7.49935C3.33268 1.66602 1.66602 3.33268 1.66602 7.49935V12.4993C1.66602 16.666 3.33268 18.3327 7.49935 18.3327H12.4993C16.666 18.3327 18.3327 16.666 18.3327 12.4993Z" stroke="#424242" stroke-width="1.5" stroke-linecap="round" stroke-linejoin="round"/>
<path id="Vector_2" d="M2.09961 5.92578H17.8996" stroke="#424242" stroke-width="1.5" stroke-linecap="round" stroke-linejoin="round"/>
<path id="Vector_3" d="M7.09961 1.75781V5.80781" stroke="#424242" stroke-width="1.5" stroke-linecap="round" stroke-linejoin="round"/>
<path id="Vector_4" d="M12.9004 1.75781V5.43281" stroke="#4B586E" stroke-width="1.5" stroke-linecap="round" stroke-linejoin="round"/>
<path id="Vector_5" d="M8.125 12.0421V11.0421C8.125 9.75875 9.03333 9.23376 10.1417 9.87542L11.0083 10.3754L11.875 10.8754C12.9833 11.5171 12.9833 12.5671 11.875 13.2088L11.0083 13.7088L10.1417 14.2088C9.03333 14.8504 8.125 14.3254 8.125 13.0421V12.0421V12.0421Z" stroke="#4B586E" stroke-width="1.5" stroke-miterlimit="10" stroke-linecap="round" stroke-linejoin="round"/>
</g>
</g>
</svg>
