<svg width="16" height="16" viewBox="0 0 16 16" fill="none" xmlns="http://www.w3.org/2000/svg">
<g id="vuesax/outline/arrow-left">
<g id="arrow-left">
<g id="Vector">
<mask id="path-1-inside-1_4391_56518" fill="white">
<path d="M6.37996 12.5448C6.25329 12.5448 6.12663 12.4981 6.02663 12.3981L1.97996 8.35146C1.78663 8.15812 1.78663 7.83812 1.97996 7.64479L6.02663 3.59812C6.21996 3.40479 6.53996 3.40479 6.73329 3.59812C6.92663 3.79146 6.92663 4.11146 6.73329 4.30479L3.03996 7.99812L6.73329 11.6915C6.92663 11.8848 6.92663 12.2048 6.73329 12.3981C6.63996 12.4981 6.50663 12.5448 6.37996 12.5448Z"/>
</mask>
<path d="M6.37996 12.5448C6.25329 12.5448 6.12663 12.4981 6.02663 12.3981L1.97996 8.35146C1.78663 8.15812 1.78663 7.83812 1.97996 7.64479L6.02663 3.59812C6.21996 3.40479 6.53996 3.40479 6.73329 3.59812C6.92663 3.79146 6.92663 4.11146 6.73329 4.30479L3.03996 7.99812L6.73329 11.6915C6.92663 11.8848 6.92663 12.2048 6.73329 12.3981C6.63996 12.4981 6.50663 12.5448 6.37996 12.5448Z" fill="#424242"/>
<path d="M6.02663 12.3981L5.31952 13.1052L6.02663 12.3981ZM1.97996 8.35146L2.68707 7.64435H2.68707L1.97996 8.35146ZM1.97996 7.64479L2.68707 8.3519L2.68707 8.3519L1.97996 7.64479ZM6.02663 3.59812L5.31952 2.89102L6.02663 3.59812ZM6.73329 4.30479L7.4404 5.0119L6.73329 4.30479ZM3.03996 7.99812L2.33285 7.29102L1.62575 7.99812L2.33285 8.70523L3.03996 7.99812ZM6.73329 11.6915L6.02619 12.3986L6.73329 11.6915ZM6.73329 12.3981L6.02619 11.691L6.014 11.7032L6.00224 11.7158L6.73329 12.3981ZM6.37996 11.5448C6.5042 11.5448 6.63631 11.5936 6.73373 11.691L5.31952 13.1052C5.61694 13.4027 6.00239 13.5448 6.37996 13.5448V11.5448ZM6.73373 11.691L2.68707 7.64435L1.27285 9.05856L5.31952 13.1052L6.73373 11.691ZM2.68707 7.64435C2.88426 7.84154 2.88426 8.15471 2.68707 8.3519L1.27285 6.93768C0.688997 7.52154 0.688997 8.47471 1.27285 9.05856L2.68707 7.64435ZM2.68707 8.3519L6.73373 4.30523L5.31952 2.89102L1.27285 6.93769L2.68707 8.3519ZM6.73373 4.30523C6.53654 4.50242 6.22338 4.50242 6.02619 4.30523L7.4404 2.89102C6.85654 2.30716 5.90338 2.30716 5.31952 2.89102L6.73373 4.30523ZM6.02619 4.30523C5.829 4.10804 5.829 3.79488 6.02619 3.59768L7.4404 5.0119C8.02426 4.42804 8.02426 3.47488 7.4404 2.89102L6.02619 4.30523ZM6.02619 3.59768L2.33285 7.29102L3.74707 8.70523L7.4404 5.0119L6.02619 3.59768ZM2.33285 8.70523L6.02619 12.3986L7.4404 10.9844L3.74707 7.29102L2.33285 8.70523ZM6.02619 12.3986C5.829 12.2014 5.829 11.8882 6.02619 11.691L7.4404 13.1052C8.02426 12.5214 8.02426 11.5682 7.4404 10.9844L6.02619 12.3986ZM6.00224 11.7158C6.12841 11.5806 6.27735 11.5448 6.37996 11.5448V13.5448C6.7359 13.5448 7.15151 13.4156 7.46435 13.0804L6.00224 11.7158Z" fill="#4B586E" mask="url(#path-1-inside-1_4391_56518)"/>
</g>
<g id="Vector_2">
<mask id="path-3-inside-2_4391_56518" fill="white">
<path d="M13.6663 8.5H2.44629C2.17296 8.5 1.94629 8.27333 1.94629 8C1.94629 7.72667 2.17296 7.5 2.44629 7.5H13.6663C13.9396 7.5 14.1663 7.72667 14.1663 8C14.1663 8.27333 13.9396 8.5 13.6663 8.5Z"/>
</mask>
<path d="M13.6663 8.5H2.44629C2.17296 8.5 1.94629 8.27333 1.94629 8C1.94629 7.72667 2.17296 7.5 2.44629 7.5H13.6663C13.9396 7.5 14.1663 7.72667 14.1663 8C14.1663 8.27333 13.9396 8.5 13.6663 8.5Z" fill="#4B586E"/>
<path d="M13.6663 7.5H2.44629V9.5H13.6663V7.5ZM2.44629 7.5C2.72524 7.5 2.94629 7.72105 2.94629 8H0.946289C0.946289 8.82562 1.62067 9.5 2.44629 9.5V7.5ZM2.94629 8C2.94629 8.27895 2.72524 8.5 2.44629 8.5V6.5C1.62067 6.5 0.946289 7.17438 0.946289 8H2.94629ZM2.44629 8.5H13.6663V6.5H2.44629V8.5ZM13.6663 8.5C13.3873 8.5 13.1663 8.27895 13.1663 8H15.1663C15.1663 7.17438 14.4919 6.5 13.6663 6.5V8.5ZM13.1663 8C13.1663 7.72105 13.3873 7.5 13.6663 7.5V9.5C14.4919 9.5 15.1663 8.82562 15.1663 8H13.1663Z" fill="#424242" mask="url(#path-3-inside-2_4391_56518)"/>
</g>
</g>
</g>
</svg>
