<svg width="62" height="62" viewBox="0 0 62 62" fill="none" xmlns="http://www.w3.org/2000/svg">
<g id="vuesax/linear/award">
<g id="award">
<path id="Vector" d="M11.0049 28.4671V41.3062C11.0049 46.0079 11.0049 46.0079 15.4482 49.0046L27.6674 56.0571C29.5015 57.1162 32.4982 57.1162 34.3324 56.0571L46.5515 49.0046C50.9949 46.0079 50.9949 46.0079 50.9949 41.3062V28.4671C50.9949 23.7654 50.9949 23.7654 46.5515 20.7687L34.3324 13.7162C32.4982 12.6571 29.5015 12.6571 27.6674 13.7162L15.4482 20.7687C11.0049 23.7654 11.0049 23.7654 11.0049 28.4671Z" stroke="#888888" stroke-width="3" stroke-linecap="round" stroke-linejoin="round"/>
<path id="Vector_2" d="M45.2087 19.7121V12.918C45.2087 7.7513 42.6253 5.16797 37.4587 5.16797H24.542C19.3753 5.16797 16.792 7.7513 16.792 12.918V19.5313" stroke="#888888" stroke-width="3" stroke-linecap="round" stroke-linejoin="round"/>
<path id="Vector_3" d="M32.6271 28.39L34.0996 30.6892C34.3321 31.0508 34.8488 31.4125 35.2363 31.5158L37.8713 32.1875C39.4988 32.6008 39.9379 33.9958 38.8788 35.2875L37.1479 37.38C36.8896 37.7158 36.6829 38.31 36.7088 38.7233L36.8638 41.4358C36.9671 43.115 35.7788 43.9675 34.2288 43.3475L31.6971 42.34C31.3096 42.185 30.6638 42.185 30.2763 42.34L27.7446 43.3475C26.1946 43.9675 25.0063 43.0892 25.1096 41.4358L25.2646 38.7233C25.2904 38.31 25.0838 37.69 24.8254 37.38L23.0946 35.2875C22.0354 33.9958 22.4746 32.6008 24.1021 32.1875L26.7371 31.5158C27.1504 31.4125 27.6671 31.025 27.8738 30.6892L29.3463 28.39C30.2763 26.995 31.7229 26.995 32.6271 28.39Z" stroke="#888888" stroke-width="3" stroke-linecap="round" stroke-linejoin="round"/>
</g>
</g>
</svg>
