<svg width="200" height="28" viewBox="0 0 200 28" fill="none" xmlns="http://www.w3.org/2000/svg">
<line y1="13.5" x2="79" y2="13.5" stroke="#E4E7EC"/>
<path d="M100.272 14.4545C100.272 15.8523 100.016 17.054 99.5048 18.0597C98.9935 19.0611 98.2925 19.8324 97.4019 20.3736C96.5155 20.9105 95.5077 21.179 94.3784 21.179C93.2449 21.179 92.2328 20.9105 91.3422 20.3736C90.4558 19.8324 89.757 19.0589 89.2456 18.0533C88.7342 17.0476 88.4786 15.848 88.4786 14.4545C88.4786 13.0568 88.7342 11.8572 89.2456 10.8558C89.757 9.85014 90.4558 9.07883 91.3422 8.5419C92.2328 8.00071 93.2449 7.73011 94.3784 7.73011C95.5077 7.73011 96.5155 8.00071 97.4019 8.5419C98.2925 9.07883 98.9935 9.85014 99.5048 10.8558C100.016 11.8572 100.272 13.0568 100.272 14.4545ZM98.3159 14.4545C98.3159 13.3892 98.1433 12.4922 97.7982 11.7635C97.4573 11.0305 96.9885 10.4766 96.3919 10.1016C95.7996 9.7223 95.1284 9.53267 94.3784 9.53267C93.6242 9.53267 92.9509 9.7223 92.3585 10.1016C91.7662 10.4766 91.2975 11.0305 90.9523 11.7635C90.6114 12.4922 90.4409 13.3892 90.4409 14.4545C90.4409 15.5199 90.6114 16.419 90.9523 17.152C91.2975 17.8807 91.7662 18.4347 92.3585 18.8139C92.9509 19.1889 93.6242 19.3764 94.3784 19.3764C95.1284 19.3764 95.7996 19.1889 96.3919 18.8139C96.9885 18.4347 97.4573 17.8807 97.7982 17.152C98.1433 16.419 98.3159 15.5199 98.3159 14.4545ZM102.374 21V7.90909H107.041C108.055 7.90909 108.896 8.08381 109.565 8.43324C110.239 8.78267 110.742 9.26633 111.074 9.88423C111.406 10.4979 111.573 11.2074 111.573 12.0128C111.573 12.8139 111.404 13.5192 111.068 14.1286C110.735 14.7337 110.232 15.2045 109.559 15.5412C108.89 15.8778 108.048 16.0462 107.034 16.0462H103.499V14.3459H106.855C107.494 14.3459 108.014 14.2543 108.415 14.071C108.82 13.8878 109.116 13.6214 109.303 13.272C109.491 12.9226 109.585 12.5028 109.585 12.0128C109.585 11.5185 109.489 11.0902 109.297 10.728C109.11 10.3658 108.813 10.0888 108.409 9.89702C108.008 9.70099 107.482 9.60298 106.83 9.60298H104.35V21H102.374ZM108.837 15.0938L112.071 21H109.821L106.651 15.0938H108.837Z" fill="black"/>
<line x1="121" y1="13.5" x2="200" y2="13.5" stroke="#E4E7EC"/>
</svg>
