<svg width="17" height="16" viewBox="0 0 17 16" fill="none" xmlns="http://www.w3.org/2000/svg">
<g id="vuesax/outline/export">
<g id="export">
<path id="Vector" d="M8.99931 7.83219C8.87264 7.83219 8.74598 7.78552 8.64598 7.68552C8.45264 7.49219 8.45264 7.17219 8.64598 6.97885L14.1126 1.51219C14.306 1.31885 14.626 1.31885 14.8193 1.51219C15.0126 1.70552 15.0126 2.02552 14.8193 2.21885L9.35264 7.68552C9.25264 7.78552 9.12598 7.83219 8.99931 7.83219Z" fill="#AF1E27"/>
<path id="Vector_2" d="M14.9998 5.03203C14.7265 5.03203 14.4998 4.80536 14.4998 4.53203V1.83203H11.7998C11.5265 1.83203 11.2998 1.60536 11.2998 1.33203C11.2998 1.0587 11.5265 0.832031 11.7998 0.832031H14.9998C15.2731 0.832031 15.4998 1.0587 15.4998 1.33203V4.53203C15.4998 4.80536 15.2731 5.03203 14.9998 5.03203Z" fill="#AF1E27"/>
<path id="Vector_3" d="M10.3327 15.1654H6.33268C2.71268 15.1654 1.16602 13.6187 1.16602 9.9987V5.9987C1.16602 2.3787 2.71268 0.832031 6.33268 0.832031H7.66602C7.93935 0.832031 8.16602 1.0587 8.16602 1.33203C8.16602 1.60536 7.93935 1.83203 7.66602 1.83203H6.33268C3.25935 1.83203 2.16602 2.92536 2.16602 5.9987V9.9987C2.16602 13.072 3.25935 14.1654 6.33268 14.1654H10.3327C13.406 14.1654 14.4993 13.072 14.4993 9.9987V8.66536C14.4993 8.39203 14.726 8.16536 14.9993 8.16536C15.2727 8.16536 15.4993 8.39203 15.4993 8.66536V9.9987C15.4993 13.6187 13.9527 15.1654 10.3327 15.1654Z" fill="#AF1E27"/>
</g>
</g>
</svg>
