<svg width="280" height="40" viewBox="0 0 280 40" fill="none" xmlns="http://www.w3.org/2000/svg">
<path d="M40.5103 12.5232L43.4772 11.4724V25.1325L44.837 25.5033V25.936H40.3867V25.5033C40.8194 25.3797 41.1902 25.2561 41.6229 25.1325V13.4503C41.2521 13.2649 40.8812 13.0177 40.5103 12.8322V12.5232ZM30.8679 13.6976C33.2785 12.3996 36.2454 12.4614 38.656 13.7594C38.7178 14.872 38.7178 15.9846 38.7796 17.0971H38.2234C37.8525 16.2318 37.5434 15.3665 37.1726 14.5011C36.06 13.574 34.5766 13.2649 33.1549 13.5121C31.9805 13.7594 30.9916 14.5011 30.4353 15.4901C29.5081 17.0971 29.1991 19.0133 29.5699 20.8676C29.7554 22.4746 30.5589 23.9581 31.7951 24.947C33.464 26.1214 35.6891 26.0596 37.2344 24.6998C37.7289 23.7726 38.2234 22.7837 38.7178 21.8565H39.2741C39.0887 22.9691 38.9033 24.0817 38.7178 25.1943C36.8017 26.245 34.6384 26.6777 32.475 26.3687C30.868 26.1214 29.3845 25.2561 28.3955 23.9581C27.0975 22.1656 26.7885 19.8168 27.5302 17.7152C28.0865 15.9846 29.2609 14.5629 30.8679 13.6976ZM110.85 14.3157H111.283V16.7881H114.003C114.003 17.0971 114.003 17.468 114.003 17.777H111.345V23.7108C111.283 24.2671 111.592 24.8234 112.148 25.0088C112.828 25.1943 113.57 25.1325 114.188 24.8234C114.25 24.8852 114.25 25.0706 114.312 25.1943V25.2561C113.57 25.8124 112.643 26.1214 111.716 26.1832C111.098 26.245 110.479 26.0596 110.047 25.6269C109.676 25.1325 109.49 24.5144 109.552 23.9581C109.552 21.9183 109.614 19.8168 109.614 17.777H108.192V17.1589L109.614 16.7263C109.985 15.9227 110.418 15.1192 110.85 14.3157ZM54.7267 17.5916C55.7156 17.2208 56.6428 16.8499 57.6317 16.5408C57.6936 17.4062 57.6936 18.2715 57.6936 19.1369C58.188 18.3951 58.5589 17.468 59.3006 16.8499C59.8569 16.3554 60.6604 16.4172 61.1549 16.9735L61.2167 17.0353C61.464 17.6534 61.2167 18.3951 60.5986 18.7042C60.166 18.5188 59.7333 18.3333 59.3006 18.2097C58.7443 18.5188 58.3117 18.9514 58.0644 19.5077C57.9408 19.6932 57.8172 19.9404 57.8172 20.2495V25.2561L59.3006 25.6269C59.3006 25.7506 59.3006 25.936 59.3006 26.0596H54.7885V25.6269C55.1593 25.5033 55.592 25.3797 55.9629 25.2561C55.9629 23.0309 55.9629 20.8057 55.9629 18.5806L54.7267 17.9625C54.7267 17.8389 54.7267 17.6534 54.7267 17.5916ZM65.4198 16.6027C66.4706 16.4172 67.5832 16.6645 68.3867 17.4062C69.1284 18.2097 69.5611 19.2605 69.6229 20.3113H63.3801C63.2565 21.4857 63.5655 22.7219 64.2454 23.7108C64.9872 24.5762 66.1616 24.947 67.2741 24.6998C68.0777 24.4525 68.8194 24.0199 69.4375 23.4018L69.7465 23.649C69.2521 24.638 68.3867 25.4415 67.3978 25.936C65.4198 26.8631 63.071 25.9978 62.1439 24.0199C62.0821 23.8963 62.0821 23.8344 62.0203 23.7108C61.4022 22.1038 61.5258 20.3113 62.3293 18.8278C63.071 17.7152 64.1836 16.8499 65.4198 16.6027ZM64.4309 17.6534C63.8746 18.2097 63.5037 18.9514 63.4419 19.6932C64.8017 19.6932 66.1615 19.6932 67.5214 19.6932C67.4596 18.9514 67.2123 18.2715 66.7178 17.6534C66.0379 17.0971 65.1108 17.0971 64.4309 17.6534ZM91.3801 16.6027C92.6163 16.4172 93.9143 16.6645 94.9651 17.4062C95.7686 17.9625 96.3249 18.8278 96.5721 19.755C97.0048 21.4238 96.6958 23.1545 95.645 24.5762C94.9033 25.5651 93.7907 26.1832 92.6163 26.3687C91.5037 26.4923 90.4529 26.245 89.464 25.6888C88.6604 25.1943 88.1042 24.4525 87.7333 23.5872C87.0534 21.8565 87.3624 19.9404 88.4132 18.5188C89.1549 17.468 90.2057 16.7881 91.3801 16.6027ZM91.1328 17.2826C90.2057 17.5916 89.7112 18.5806 89.5258 19.5077C89.2167 21.053 89.464 22.66 90.0821 24.0817C90.4529 24.947 91.2565 25.5651 92.1836 25.6888C92.9872 25.6888 93.6671 25.2561 94.0379 24.5762C94.5942 23.4018 94.7796 22.1038 94.5942 20.8676C94.5324 19.755 94.0997 18.7042 93.358 17.9007C92.7399 17.2826 91.8746 17.0353 91.071 17.2826M47.1858 17.2826C48.2366 16.6027 49.5346 16.4172 50.7708 16.6027C51.3271 16.7263 51.8216 17.0353 52.1306 17.468C52.4397 18.0243 52.6251 18.6424 52.6251 19.3223C52.6251 21.1148 52.6251 22.9073 52.6251 24.6998C52.6251 24.8852 52.6869 25.1943 52.9342 25.2561C53.3668 25.3179 53.7995 25.3179 54.2322 25.3179V25.6888C53.4287 26.0596 52.5633 26.5541 51.6362 26.1832C51.0799 25.936 50.7708 25.3179 50.8326 24.7616C50.3381 25.3797 49.7819 25.8742 49.1019 26.245C48.1748 26.6159 47.124 26.4305 46.3823 25.8124C45.7642 25.1325 45.5788 24.1435 45.8878 23.2782C46.1969 22.5982 46.815 22.0419 47.5567 21.7947C48.6075 21.4238 49.72 21.1148 50.8326 20.8676C50.8326 19.9404 50.9562 18.8896 50.3381 18.0861C49.72 17.3444 48.6075 17.2208 47.8039 17.8389C47.7421 18.5188 47.7421 19.1369 47.6803 19.8168C47.1858 19.9404 46.6913 19.9404 46.1969 19.6932C45.8878 19.4459 45.826 19.0133 46.0114 18.7042C46.3205 17.9625 46.6913 17.5916 47.1858 17.2826ZM48.3602 22.1038C47.6185 22.5982 47.3713 23.649 47.8657 24.3907C47.9276 24.5144 47.9894 24.5762 48.0512 24.638C48.4838 25.0088 49.1019 25.1325 49.6582 24.8852C50.0909 24.6998 50.5236 24.3907 50.7708 23.9581C50.7708 23.0309 50.7708 22.1038 50.7708 21.1766C49.9673 21.4857 49.1638 21.7947 48.3602 22.1038ZM70.7355 17.5916C71.6627 17.2208 72.6516 16.8499 73.5788 16.5408C73.6406 17.0971 73.6406 17.7152 73.7024 18.2715L73.5788 18.3333C73.6406 18.3952 73.7642 18.3952 73.7642 18.3333C74.5059 17.468 75.5567 16.9117 76.6693 16.6645C77.3492 16.5408 78.0291 16.6645 78.5854 17.0353C79.0181 17.4062 79.3271 17.9625 79.4507 18.5188C80.2543 17.6534 81.2432 17.0353 82.3558 16.7263C83.1593 16.5408 84.0247 16.7263 84.6428 17.2826C85.1373 17.9625 85.3845 18.8278 85.3227 19.6932C85.3227 21.5475 85.3227 23.4018 85.3227 25.2561C85.7554 25.3797 86.1262 25.5033 86.5589 25.6888V26.1214H82.3558V25.6888L83.5302 25.3179V19.9404C83.592 19.1987 83.283 18.5188 82.6649 18.0861C81.5523 17.5298 80.3161 18.1479 79.5125 18.8896C79.5125 20.9912 79.5125 23.0927 79.5125 25.1943C79.8834 25.3179 80.3161 25.4415 80.7487 25.6269C80.7487 25.7506 80.7487 25.936 80.7487 26.0596H76.5457C76.5457 25.936 76.5457 25.7506 76.5457 25.6269L77.72 25.2561V20.1258C77.7819 19.5077 77.5964 18.9514 77.2256 18.457C76.8547 18.0243 76.2366 17.8389 75.6803 17.9625C74.9386 18.0861 74.2587 18.457 73.7024 18.9514C73.7024 21.053 73.7024 23.1545 73.7024 25.2561L74.9386 25.6269V26.0596H70.6737C70.6737 25.936 70.6737 25.7506 70.6737 25.6269L71.8481 25.2561V18.5188C71.4154 18.2715 71.0446 18.0861 70.6119 17.8389L70.7355 17.5916ZM97.8083 17.5916C98.7973 17.2208 99.7245 16.8499 100.713 16.5408C100.775 17.1589 100.775 17.777 100.837 18.3951C101.641 17.468 102.753 16.8499 103.928 16.6027C104.793 16.479 105.658 16.7881 106.215 17.4062C106.771 18.2715 106.771 19.3223 106.771 20.3113V25.1943L107.945 25.6269C107.945 25.7506 107.945 25.8742 107.945 26.0596H103.742V25.6269L104.917 25.2561V20.1258C104.978 19.5077 104.793 18.8896 104.422 18.3951C103.989 18.0243 103.433 17.8389 102.877 17.9007C102.135 18.0243 101.455 18.3952 100.899 18.8896V25.1943L102.135 25.5651V25.9978H97.8702C97.8702 25.8742 97.8702 25.6887 97.8702 25.5651L99.0445 25.1943V18.5188C98.6737 18.2715 98.241 18.0861 97.8702 17.9007L97.8083 17.5916Z" fill="#262626"/>
<path d="M153.69 12.2759L156.966 11.4724C156.966 15.9846 156.966 20.4349 156.966 24.947L158.264 25.3179C158.264 25.4415 158.264 25.5651 158.264 25.6887C157.275 25.8742 156.348 26.0596 155.359 26.245C155.297 25.8124 155.235 25.3797 155.173 24.947C154.555 25.5651 153.814 26.0596 152.948 26.245C151.712 26.4305 150.476 25.9978 149.672 25.0706C148.745 23.9581 148.312 22.5364 148.498 21.1148C148.683 19.6314 149.549 18.2715 150.785 17.4062C152.021 16.479 153.628 16.2936 155.05 16.7881C155.05 15.6137 155.05 14.4393 155.05 13.2031C154.555 13.0177 154.123 12.7704 153.628 12.585C153.69 12.5232 153.69 12.3996 153.69 12.2759ZM151.588 17.777C150.909 18.3333 150.538 19.0751 150.414 19.8786C150.167 21.1766 150.352 22.5982 151.032 23.7726C151.465 24.5144 152.268 25.0088 153.134 25.0706C153.875 25.1325 154.555 24.8852 155.112 24.3907C155.112 22.4128 155.112 20.3731 155.112 18.3951C154.246 17.2208 152.701 16.9735 151.588 17.777ZM120.003 15.8609C121.301 14.1921 123.218 13.0795 125.319 12.7704C127.05 12.5232 128.78 12.894 130.326 13.6976C130.326 14.8102 130.326 15.8609 130.388 16.9117H129.893C129.522 16.0464 129.151 15.1192 128.719 14.2539C126.803 12.894 124.145 13.2031 122.538 14.9338C121.363 16.3554 120.869 18.2097 121.054 20.064C121.054 21.6711 121.734 23.2782 122.908 24.3907C124.454 25.6269 126.555 25.936 128.41 25.1943C128.41 23.8963 128.41 22.66 128.41 21.362C127.668 21.2384 126.926 21.1766 126.184 21.053V20.4967H131.315V20.9912L130.449 21.2384V25.0088C129.213 25.7506 127.853 26.1832 126.37 26.3687C124.392 26.6159 122.414 26.1214 120.869 24.947C119.447 23.7108 118.582 21.9183 118.644 20.0022C118.582 18.5188 119.076 17.0353 120.003 15.8609ZM180.701 14.2539H181.134V16.7263H183.791V17.777H181.134V23.649C181.072 24.2053 181.381 24.7616 181.875 25.0088C182.555 25.1943 183.297 25.1325 183.977 24.8234C184.039 24.947 184.039 25.0706 184.101 25.1943C183.173 25.936 181.999 26.245 180.886 26.0596C180.392 25.9978 179.959 25.7506 179.712 25.3797C179.403 24.8852 179.279 24.3907 179.341 23.8344C179.341 21.7947 179.403 19.6932 179.403 17.6534H177.981V17.0353C178.476 16.9117 178.909 16.7263 179.403 16.6027C179.836 15.8609 180.207 15.0574 180.701 14.2539ZM132.242 17.5298C133.231 17.1589 134.158 16.7881 135.147 16.479C135.209 17.3444 135.209 18.2097 135.209 19.0751C135.765 18.3333 136.074 17.3444 136.878 16.7881C137.434 16.3554 138.299 16.4172 138.732 16.9735C138.979 17.5916 138.732 18.3333 138.114 18.6424C137.681 18.457 137.248 18.2715 136.754 18.1479C136.074 18.5188 135.58 19.1987 135.332 19.9404C135.332 21.6711 135.332 23.4018 135.332 25.1325L136.816 25.5033V25.936H132.304C132.304 25.8124 132.304 25.6269 132.304 25.5033L133.478 25.1325C133.478 22.9073 133.478 20.6821 133.478 18.457L132.242 17.777V17.5298ZM141.637 16.9117C142.75 16.4172 144.109 16.3554 145.284 16.7881C146.087 17.2208 146.582 18.0861 146.52 19.0132C146.52 20.9294 146.52 22.8455 146.52 24.6998C146.458 24.8852 146.644 25.1325 146.829 25.1325C147.262 25.1325 147.633 25.1325 148.065 25.1325C148.065 25.1943 148.065 25.3797 148.065 25.4415C147.324 25.8124 146.396 26.245 145.531 25.936C144.975 25.6887 144.604 25.0706 144.666 24.4525C144.233 25.0706 143.615 25.5651 142.935 25.8742C142.008 26.3069 140.895 26.0596 140.154 25.3797C139.535 24.6998 139.35 23.7726 139.659 22.9691C139.968 22.2274 140.586 21.6711 141.39 21.4238C142.441 21.053 143.553 20.7439 144.666 20.4967C144.666 19.5695 144.789 18.5188 144.171 17.7152C143.553 16.9735 142.441 16.8499 141.637 17.4062C141.575 18.0861 141.575 18.766 141.513 19.3841C141.019 19.5077 140.524 19.5077 140.092 19.2605C139.783 18.9514 139.659 18.457 139.968 18.0861C140.339 17.6534 140.957 17.2208 141.637 16.9117ZM142.626 21.8565C142.131 21.9801 141.761 22.351 141.513 22.8455C141.328 23.4018 141.452 24.0199 141.822 24.5144C142.193 24.947 142.811 25.1325 143.368 24.947C143.862 24.7616 144.357 24.4525 144.666 24.0199C144.727 23.0927 144.666 22.1656 144.666 21.2384C143.986 21.4238 143.244 21.6093 142.626 21.8565ZM171.182 17.0971C172.233 16.5408 173.469 16.3554 174.644 16.6027C175.2 16.7263 175.694 17.0353 176.003 17.468C176.312 18.0243 176.498 18.7042 176.436 19.3841V24.638C176.436 24.8234 176.436 25.1325 176.683 25.1943C177.116 25.2561 177.549 25.2561 177.981 25.2561C177.981 25.3179 177.981 25.5033 177.981 25.5651C177.178 25.936 176.251 26.4305 175.385 26.0596C174.829 25.8124 174.644 25.1943 174.582 24.638C174.149 25.2561 173.593 25.6887 172.913 26.0596C171.986 26.4923 170.873 26.3069 170.131 25.6269C169.204 24.6998 169.266 23.1545 170.255 22.2892C170.317 22.2274 170.379 22.1656 170.441 22.1038C171.677 21.2384 173.222 21.1148 174.582 20.6821C174.582 19.755 174.705 18.6424 174.087 17.8389C173.469 17.0971 172.357 16.9735 171.553 17.5916C171.553 18.2715 171.491 18.9514 171.491 19.5695C171.059 19.6932 170.564 19.6932 170.131 19.5077C169.761 19.2605 169.699 18.766 169.946 18.3951C170.255 17.8389 170.75 17.4062 171.306 17.1589M172.789 21.7947C172.295 21.9183 171.862 22.2274 171.553 22.66C171.306 23.2163 171.306 23.8963 171.677 24.4525C172.048 25.0088 172.789 25.1943 173.407 24.947C173.902 24.7616 174.335 24.4525 174.644 24.0199C174.644 23.0927 174.644 22.1656 174.644 21.2384C174.025 21.362 173.407 21.6093 172.789 21.7947ZM185.337 18.6424C186.017 17.5298 187.191 16.7263 188.489 16.5408C189.416 16.4172 190.343 16.6645 191.085 17.2208C191.889 18.0243 192.383 19.1369 192.445 20.2495H186.202C186.078 21.4238 186.388 22.66 187.067 23.649C187.871 24.5762 189.045 24.947 190.22 24.638C191.023 24.3907 191.703 23.9581 192.259 23.4018L192.569 23.649C192.074 24.638 191.271 25.4415 190.282 25.936C189.169 26.4305 187.871 26.4305 186.82 25.8742C186.017 25.5033 185.399 24.8234 185.028 24.0817C184.224 22.2892 184.286 20.2495 185.337 18.6424ZM187.253 17.5916C186.697 18.1479 186.326 18.8896 186.264 19.6314C187.624 19.6314 188.984 19.6314 190.343 19.6314C190.282 18.8896 190.034 18.1479 189.54 17.5916C188.86 17.0353 187.871 17.0353 187.253 17.5916ZM158.449 17.0971L161.54 16.6027V22.8455C161.478 23.4636 161.725 24.0817 162.158 24.5144C163.147 25.3179 164.692 24.8852 165.496 24.0199C165.496 21.9801 165.496 19.9404 165.496 17.9007C165.001 17.777 164.569 17.6534 164.074 17.468V17.0971L167.288 16.6027V24.8852L168.648 25.3797V25.7506L165.681 26.245C165.619 25.6887 165.558 25.1325 165.496 24.5144C164.878 25.3797 163.95 25.936 162.961 26.245C162.096 26.4305 161.169 26.1832 160.489 25.5651C159.933 24.8852 159.624 24.0817 159.686 23.2163V17.9007L158.449 17.4062C158.511 17.3444 158.511 17.1589 158.449 17.0971Z" fill="#262626"/>
<path d="M222.608 11.5937C223.226 11.2846 223.968 11.5937 224.277 12.2118C224.277 12.2736 224.339 12.3354 224.339 12.3972C224.524 13.0771 224.154 13.757 223.535 13.9424C223.412 14.0043 223.288 14.0042 223.165 14.0042C222.485 14.0042 221.928 13.448 221.867 12.768C221.867 12.2736 222.114 11.8409 222.608 11.5937ZM260.374 11.6555C260.992 11.4082 261.734 11.6555 261.981 12.2736C262.043 12.3354 262.043 12.459 262.043 12.5826C262.105 13.2625 261.672 13.9424 260.931 14.0042C260.869 14.0042 260.807 14.0042 260.807 14.0042C260.127 14.0042 259.633 13.448 259.571 12.8299C259.633 12.2736 259.942 11.8409 260.374 11.6555ZM196.895 13.3243V12.8917H202.211C202.211 13.0153 202.211 13.2007 202.211 13.3243L200.542 13.757V20.4943C200.48 21.6687 200.727 22.8431 201.346 23.8939C201.84 24.6356 202.644 25.0683 203.509 25.1301C204.683 25.3155 205.858 24.9446 206.661 24.1411C207.403 23.1521 207.836 21.9778 207.774 20.7416C207.774 18.4546 207.774 16.2294 207.774 13.9424L205.549 13.3243V12.8917H210.246V13.3243L208.701 13.8188V19.938C208.825 21.2979 208.577 22.5959 208.021 23.8321C207.341 25.0065 206.229 25.81 204.931 26.0572C203.818 26.3045 202.705 26.2427 201.593 25.9954C200.604 25.7482 199.8 25.1301 199.244 24.3265C198.626 23.2758 198.379 22.1014 198.441 20.8652C198.441 18.5164 198.441 16.1058 198.441 13.757C197.946 13.5716 197.39 13.448 196.895 13.3243ZM266.308 14.0661H266.741V16.5385H269.399V17.5274C268.533 17.5274 267.606 17.5274 266.741 17.5274V23.523C266.741 24.0793 266.988 24.512 267.482 24.7592C268.162 24.9446 268.904 24.8828 269.584 24.6356L269.708 25.0065C268.78 25.7482 267.606 26.0572 266.432 25.8718C265.937 25.81 265.505 25.5628 265.257 25.1919C265.01 24.6974 264.886 24.1411 264.886 23.523C264.886 21.4833 264.948 19.5054 264.948 17.4656H263.527C263.527 17.2802 263.527 17.0948 263.527 16.8475L264.948 16.4149L266.308 14.0661ZM210.308 17.2802C211.297 16.9093 212.224 16.5385 213.151 16.2294C213.213 16.8475 213.213 17.4656 213.275 18.0837C214.078 17.1566 215.129 16.5385 216.304 16.2912C217.107 16.1676 217.911 16.353 218.467 16.9093C218.961 17.5892 219.209 18.3928 219.147 19.2581V24.8828L220.321 25.3155V25.81H216.118C216.118 25.6864 216.118 25.5009 216.118 25.3773C216.489 25.2537 216.86 25.1301 217.293 25.0065C217.293 23.2758 217.293 21.5451 217.293 19.8762C217.354 19.2581 217.169 18.64 216.798 18.1455C216.365 17.7129 215.686 17.5892 215.129 17.7129C214.449 17.8983 213.831 18.2073 213.337 18.7018C213.337 20.8034 213.337 22.9049 213.337 25.0065L214.573 25.3773V25.81H210.308C210.308 25.6864 210.308 25.5009 210.308 25.3773L211.482 25.0065V18.331C211.05 18.0837 210.679 17.8983 210.246 17.6511C210.246 17.5892 210.246 17.4656 210.246 17.4038M221.187 17.342C222.176 17.033 223.165 16.6621 224.154 16.353V24.9446L225.513 25.3155V25.7482H221.187C221.187 25.6246 221.187 25.4391 221.187 25.3155C221.558 25.1919 221.99 25.0683 222.361 24.8828C222.361 22.6577 222.361 20.4325 222.361 18.2691L221.248 17.5892L221.187 17.342ZM235.65 18.64C236.268 17.5274 237.319 16.6621 238.555 16.353C239.668 16.1058 240.842 16.353 241.708 17.1566C242.388 17.9601 242.82 19.0109 242.882 20.0616H236.639C236.516 21.2978 236.825 22.4722 237.566 23.523C238.37 24.3884 239.606 24.7592 240.719 24.4502C241.46 24.2029 242.14 23.7702 242.697 23.214L243.006 23.4612C242.511 24.4502 241.646 25.2537 240.657 25.7482C239.359 26.3045 237.814 26.1808 236.701 25.3773C235.836 24.6974 235.218 23.7084 235.032 22.5959C234.785 21.236 234.97 19.8144 235.65 18.64ZM237.69 17.4656C237.134 18.0219 236.825 18.7636 236.701 19.5053H240.78C240.719 18.7636 240.471 18.0837 239.977 17.5274C239.359 16.8475 238.308 16.8475 237.69 17.4656ZM243.995 17.4038C244.922 17.0329 245.911 16.6621 246.838 16.353C246.9 17.2184 246.838 18.0837 246.961 18.8872C247.456 18.0837 247.827 17.1566 248.569 16.6003C249.125 16.1676 250.114 16.2294 250.423 16.9093C250.608 17.5274 250.361 18.2073 249.805 18.5164L248.445 18.0219C247.889 18.331 247.456 18.8254 247.209 19.3817C247.085 19.5672 247.023 19.7526 247.023 19.9998V25.0065L248.507 25.3773V25.81H243.995V25.3773L245.169 25.0065C245.169 22.7813 245.169 20.5561 245.169 18.331C244.798 18.0837 244.365 17.8983 243.933 17.6511C243.995 17.5274 243.995 17.4038 243.995 17.4038ZM252.339 17.2184C253.822 16.1058 255.8 15.9822 257.407 16.9093C257.407 17.7129 257.407 18.5164 257.407 19.3199H257.037C256.727 18.7018 256.48 18.0219 256.171 17.342C255.491 16.7239 254.502 16.7239 253.761 17.2184C253.142 17.7747 253.081 18.7018 253.637 19.3199C253.699 19.4435 253.822 19.5054 253.946 19.5672C255.059 20.2471 256.357 20.4325 257.284 21.2978C257.84 21.8541 258.087 22.7195 257.84 23.523C257.593 24.512 256.851 25.2537 255.924 25.6246C254.502 26.1809 252.895 26.0572 251.597 25.3155C251.535 24.3884 251.535 23.3994 251.474 22.4722H251.844C252.215 23.214 252.463 24.0175 252.833 24.7592C253.575 25.5009 254.75 25.5009 255.553 24.8828C256.233 24.3265 256.295 23.2758 255.739 22.5959C255.677 22.534 255.615 22.4722 255.553 22.4104C254.564 21.7305 253.328 21.5451 252.339 20.8034C251.288 19.8762 251.226 18.331 252.092 17.342C252.154 17.2802 252.277 17.1566 252.339 17.0948M259.014 17.342L261.981 16.353C261.981 19.1963 261.981 22.1014 261.981 24.9446C262.414 25.1301 262.847 25.2537 263.279 25.3773V25.81H258.953V25.3773L260.127 25.0065C260.127 22.7813 260.127 20.5561 260.127 18.331L258.953 17.6511L259.014 17.342ZM225.513 16.5385H229.84V17.033L228.604 17.4038C229.346 19.5672 230.149 21.7305 230.891 23.9557C231.694 21.7923 232.374 19.629 233.178 17.4656L231.818 17.033V16.6003H235.094V17.0948L233.981 17.4656C232.931 20.3707 231.818 23.2758 230.767 26.1808H229.84C228.727 23.2758 227.677 20.3707 226.564 17.5274C226.193 17.4038 225.822 17.2802 225.452 17.1566V16.6621M270.264 16.6003H274.096V17.0948L273.107 17.4656C273.911 19.629 274.714 21.7923 275.456 23.8939L277.743 17.5274L276.383 17.0948V16.6621H279.412V17.1566L278.485 17.5274C277.063 21.4215 275.641 25.2537 274.158 29.1477C273.911 29.9513 273.293 30.5694 272.427 30.7548H272.056C271.5 30.693 271.067 30.1985 271.067 29.6422C271.067 29.0241 271.562 28.5296 272.18 28.5296C272.242 28.5296 272.242 28.5296 272.304 28.5296C272.798 28.5296 273.169 28.9623 273.478 29.3332C273.849 28.406 274.158 27.4789 274.529 26.5517C273.354 23.523 272.242 20.4943 271.067 17.4656L270.202 17.1566L270.264 16.6003Z" fill="#262626"/>
<path d="M10.8462 11.0398C11.6473 11.7815 12.2635 12.6469 12.6333 13.6976C12.8798 14.5012 12.7565 15.3665 12.3252 16.0464C11.2775 17.7153 9.42882 18.7043 8.62771 20.4967C8.19634 21.4857 8.25796 22.5983 8.68933 23.5873C7.88822 22.7219 7.02548 21.7329 6.90223 20.4967C6.84061 19.5078 7.14873 18.5806 7.8266 17.9007C8.87421 16.6027 10.2916 15.6137 10.9694 14.0685C11.4008 13.0795 11.3392 11.9669 10.8462 11.0398Z" fill="white"/>
<path d="M13.0648 15.8608C13.8659 16.6026 14.4822 17.5297 14.8519 18.5805C15.0984 19.384 14.9136 20.1876 14.4822 20.8675C13.4346 22.5363 11.5859 23.5253 10.7847 25.3178C10.3534 26.3068 10.3534 27.4193 10.8464 28.4083C10.0453 27.6666 9.42901 26.7394 9.05927 25.6887C8.87439 24.9469 8.99764 24.0816 9.42901 23.4017C10.415 21.7328 12.2021 20.682 13.0648 18.8895C13.5578 17.9006 13.4962 16.8498 13.0648 15.8608Z" fill="white"/>
<path d="M10.3533 9H11.4009C13.2496 9.12362 15.0983 9.67991 16.6389 10.6689C21.5689 13.883 22.9862 20.4967 19.7818 25.4415C16.5773 30.3863 9.98353 31.8079 5.05361 28.5938C2.15727 26.7395 0.370175 23.5872 0.185303 20.1258V19.0132C0.555047 13.6358 4.93036 9.30905 10.3533 9ZM10.8463 11.0397C11.2776 11.9669 11.3393 13.0177 10.9079 13.9448C10.23 15.4901 8.75105 16.479 7.76507 17.777C7.0872 18.457 6.77908 19.4459 6.8407 20.3731C6.96395 21.6093 7.82669 22.5982 8.6278 23.4636C8.13481 22.4746 8.13481 21.362 8.56618 20.3731C9.42892 18.5806 11.2776 17.5916 12.2636 15.9227C12.695 15.2428 12.8182 14.3775 12.6334 13.574C12.2636 12.6468 11.6474 11.7196 10.8463 11.0397ZM13.0647 15.8609C13.4961 16.7881 13.5577 17.9007 13.1264 18.8278C12.3253 20.6821 10.5382 21.7329 9.49054 23.4018C9.05917 24.0817 8.93592 24.8852 9.1208 25.6887C9.49054 26.7395 10.0452 27.6667 10.8463 28.4084C10.3533 27.4194 10.3533 26.3068 10.7846 25.3179C11.6474 23.5254 13.4961 22.5364 14.4821 20.8676C14.9135 20.1876 15.0367 19.3841 14.8518 18.5806C14.4821 17.5916 13.8659 16.6645 13.0647 15.8609Z" fill="#AF1E27"/>
</svg>
