<svg width="280" height="60" viewBox="0 0 280 60" fill="none" xmlns="http://www.w3.org/2000/svg">
<path d="M40.5102 22.5232L43.4771 21.4724V35.1325L44.8369 35.5033V35.936H40.3866V35.5033C40.8193 35.3797 41.1901 35.2561 41.6228 35.1325V23.4503C41.2519 23.2649 40.8811 23.0177 40.5102 22.8322V22.5232ZM30.8678 23.6976C33.2784 22.3996 36.2453 22.4614 38.6559 23.7594C38.7177 24.872 38.7177 25.9846 38.7795 27.0971H38.2232C37.8524 26.2318 37.5433 25.3665 37.1725 24.5011C36.0599 23.574 34.5764 23.2649 33.1548 23.5121C31.9804 23.7594 30.9914 24.5011 30.4352 25.4901C29.508 27.0971 29.199 29.0133 29.5698 30.8676C29.7552 32.4746 30.5588 33.9581 31.795 34.947C33.4639 36.1214 35.689 36.0596 37.2343 34.6998C37.7288 33.7726 38.2232 32.7837 38.7177 31.8565H39.274C39.0886 32.9691 38.9031 34.0817 38.7177 35.1943C36.8016 36.245 34.6382 36.6777 32.4749 36.3687C30.8678 36.1214 29.3844 35.2561 28.3954 33.9581C27.0974 32.1656 26.7884 29.8168 27.5301 27.7152C28.0864 25.9846 29.2608 24.5629 30.8678 23.6976ZM110.85 24.3157H111.283V26.7881H114.002C114.002 27.0971 114.002 27.468 114.002 27.777H111.345V33.7108C111.283 34.2671 111.592 34.8234 112.148 35.0088C112.828 35.1943 113.57 35.1325 114.188 34.8234C114.25 34.8852 114.25 35.0706 114.312 35.1943V35.2561C113.57 35.8124 112.643 36.1214 111.716 36.1832C111.097 36.245 110.479 36.0596 110.047 35.6269C109.676 35.1325 109.49 34.5144 109.552 33.9581C109.552 31.9183 109.614 29.8168 109.614 27.777H108.192V27.1589L109.614 26.7263C109.985 25.9227 110.418 25.1192 110.85 24.3157ZM54.7265 27.5916C55.7155 27.2208 56.6427 26.8499 57.6316 26.5408C57.6934 27.4062 57.6934 28.2715 57.6934 29.1369C58.1879 28.3951 58.5588 27.468 59.3005 26.8499C59.8568 26.3554 60.6603 26.4172 61.1548 26.9735L61.2166 27.0353C61.4639 27.6534 61.2166 28.3951 60.5985 28.7042C60.1658 28.5188 59.7332 28.3333 59.3005 28.2097C58.7442 28.5188 58.3115 28.9514 58.0643 29.5077C57.9407 29.6932 57.8171 29.9404 57.8171 30.2495V35.2561L59.3005 35.6269C59.3005 35.7506 59.3005 35.936 59.3005 36.0596H54.7884V35.6269C55.1592 35.5033 55.5919 35.3797 55.9628 35.2561C55.9628 33.0309 55.9628 30.8057 55.9628 28.5806L54.7265 27.9625C54.7265 27.8389 54.7265 27.6534 54.7265 27.5916ZM65.4197 26.6027C66.4705 26.4172 67.5831 26.6645 68.3866 27.4062C69.1283 28.2097 69.561 29.2605 69.6228 30.3113H63.38C63.2564 31.4857 63.5654 32.7219 64.2453 33.7108C64.987 34.5762 66.1614 34.947 67.274 34.6998C68.0775 34.4525 68.8193 34.0199 69.4374 33.4018L69.7464 33.649C69.2519 34.638 68.3866 35.4415 67.3976 35.936C65.4197 36.8631 63.0709 35.9978 62.1438 34.0199C62.082 33.8963 62.082 33.8344 62.0201 33.7108C61.402 32.1038 61.5257 30.3113 62.3292 28.8278C63.0709 27.7152 64.1835 26.8499 65.4197 26.6027ZM64.4307 27.6534C63.8745 28.2097 63.5036 28.9514 63.4418 29.6932C64.8016 29.6932 66.1614 29.6932 67.5212 29.6932C67.4594 28.9514 67.2122 28.2715 66.7177 27.6534C66.0378 27.0971 65.1107 27.0971 64.4307 27.6534ZM91.38 26.6027C92.6162 26.4172 93.9142 26.6645 94.965 27.4062C95.7685 27.9625 96.3248 28.8278 96.572 29.755C97.0047 31.4238 96.6956 33.1545 95.6449 34.5762C94.9031 35.5651 93.7906 36.1832 92.6162 36.3687C91.5036 36.4923 90.4528 36.245 89.4639 35.6888C88.6603 35.1943 88.104 34.4525 87.7332 33.5872C87.0533 31.8565 87.3623 29.9404 88.4131 28.5188C89.1548 27.468 90.2056 26.7881 91.38 26.6027ZM91.1327 27.2826C90.2056 27.5916 89.7111 28.5806 89.5257 29.5077C89.2166 31.053 89.4639 32.66 90.082 34.0817C90.4528 34.947 91.2563 35.5651 92.1835 35.6888C92.987 35.6888 93.6669 35.2561 94.0378 34.5762C94.5941 33.4018 94.7795 32.1038 94.5941 30.8676C94.5323 29.755 94.0996 28.7042 93.3579 27.9007C92.7398 27.2826 91.8745 27.0353 91.0709 27.2826M47.1857 27.2826C48.2365 26.6027 49.5345 26.4172 50.7707 26.6027C51.327 26.7263 51.8215 27.0353 52.1305 27.468C52.4396 28.0243 52.625 28.6424 52.625 29.3223C52.625 31.1148 52.625 32.9073 52.625 34.6998C52.625 34.8852 52.6868 35.1943 52.934 35.2561C53.3667 35.3179 53.7994 35.3179 54.2321 35.3179V35.6888C53.4285 36.0596 52.5632 36.5541 51.636 36.1832C51.0798 35.936 50.7707 35.3179 50.8325 34.7616C50.338 35.3797 49.7817 35.8742 49.1018 36.245C48.1747 36.6159 47.1239 36.4305 46.3822 35.8124C45.7641 35.1325 45.5786 34.1435 45.8877 33.2782C46.1967 32.5982 46.8148 32.0419 47.5566 31.7947C48.6073 31.4238 49.7199 31.1148 50.8325 30.8676C50.8325 29.9404 50.9561 28.8896 50.338 28.0861C49.7199 27.3444 48.6073 27.2208 47.8038 27.8389C47.742 28.5188 47.742 29.1369 47.6802 29.8168C47.1857 29.9404 46.6912 29.9404 46.1967 29.6932C45.8877 29.4459 45.8259 29.0133 46.0113 28.7042C46.3204 27.9625 46.6912 27.5916 47.1857 27.2826ZM48.3601 32.1038C47.6184 32.5982 47.3711 33.649 47.8656 34.3907C47.9274 34.5144 47.9892 34.5762 48.0511 34.638C48.4837 35.0088 49.1018 35.1325 49.6581 34.8852C50.0908 34.6998 50.5235 34.3907 50.7707 33.9581C50.7707 33.0309 50.7707 32.1038 50.7707 31.1766C49.9672 31.4857 49.1636 31.7947 48.3601 32.1038ZM70.7354 27.5916C71.6625 27.2208 72.6515 26.8499 73.5786 26.5408C73.6405 27.0971 73.6405 27.7152 73.7023 28.2715L73.5786 28.3333C73.6405 28.3952 73.7641 28.3952 73.7641 28.3333C74.5058 27.468 75.5566 26.9117 76.6692 26.6645C77.3491 26.5408 78.029 26.6645 78.5853 27.0353C79.0179 27.4062 79.327 27.9625 79.4506 28.5188C80.2541 27.6534 81.2431 27.0353 82.3557 26.7263C83.1592 26.5408 84.0246 26.7263 84.6427 27.2826C85.1371 27.9625 85.3844 28.8278 85.3226 29.6932C85.3226 31.5475 85.3226 33.4018 85.3226 35.2561C85.7552 35.3797 86.1261 35.5033 86.5588 35.6888V36.1214H82.3557V35.6888L83.5301 35.3179V29.9404C83.5919 29.1987 83.2828 28.5188 82.6647 28.0861C81.5522 27.5298 80.3159 28.1479 79.5124 28.8896C79.5124 30.9912 79.5124 33.0927 79.5124 35.1943C79.8833 35.3179 80.3159 35.4415 80.7486 35.6269C80.7486 35.7506 80.7486 35.936 80.7486 36.0596H76.5455C76.5455 35.936 76.5455 35.7506 76.5455 35.6269L77.7199 35.2561V30.1258C77.7817 29.5077 77.5963 28.9514 77.2254 28.457C76.8546 28.0243 76.2365 27.8389 75.6802 27.9625C74.9385 28.0861 74.2586 28.457 73.7023 28.9514C73.7023 31.053 73.7023 33.1545 73.7023 35.2561L74.9385 35.6269V36.0596H70.6736C70.6736 35.936 70.6736 35.7506 70.6736 35.6269L71.848 35.2561V28.5188C71.4153 28.2715 71.0444 28.0861 70.6118 27.8389L70.7354 27.5916ZM97.8082 27.5916C98.7972 27.2208 99.7243 26.8499 100.713 26.5408C100.775 27.1589 100.775 27.777 100.837 28.3951C101.64 27.468 102.753 26.8499 103.927 26.6027C104.793 26.479 105.658 26.7881 106.214 27.4062C106.771 28.2715 106.771 29.3223 106.771 30.3113V35.1943L107.945 35.6269C107.945 35.7506 107.945 35.8742 107.945 36.0596H103.742V35.6269L104.916 35.2561V30.1258C104.978 29.5077 104.793 28.8896 104.422 28.3951C103.989 28.0243 103.433 27.8389 102.877 27.9007C102.135 28.0243 101.455 28.3952 100.899 28.8896V35.1943L102.135 35.5651V35.9978H97.87C97.87 35.8742 97.87 35.6887 97.87 35.5651L99.0444 35.1943V28.5188C98.6736 28.2715 98.2409 28.0861 97.87 27.9007L97.8082 27.5916Z" fill="white"/>
<path d="M153.69 22.2759L156.966 21.4724C156.966 25.9846 156.966 30.4349 156.966 34.947L158.264 35.3179C158.264 35.4415 158.264 35.5651 158.264 35.6887C157.275 35.8742 156.348 36.0596 155.359 36.245C155.297 35.8124 155.235 35.3797 155.173 34.947C154.555 35.5651 153.813 36.0596 152.948 36.245C151.712 36.4305 150.476 35.9978 149.672 35.0706C148.745 33.9581 148.312 32.5364 148.498 31.1148C148.683 29.6314 149.548 28.2715 150.785 27.4062C152.021 26.479 153.628 26.2936 155.05 26.7881C155.05 25.6137 155.05 24.4393 155.05 23.2031C154.555 23.0177 154.122 22.7704 153.628 22.585C153.69 22.5232 153.69 22.3996 153.69 22.2759ZM151.588 27.777C150.908 28.3333 150.537 29.0751 150.414 29.8786C150.167 31.1766 150.352 32.5982 151.032 33.7726C151.465 34.5144 152.268 35.0088 153.133 35.0706C153.875 35.1325 154.555 34.8852 155.111 34.3907C155.111 32.4128 155.111 30.3731 155.111 28.3951C154.246 27.2208 152.701 26.9735 151.588 27.777ZM120.003 25.8609C121.301 24.1921 123.217 23.0795 125.319 22.7704C127.05 22.5232 128.78 22.894 130.326 23.6976C130.326 24.8102 130.326 25.8609 130.387 26.9117H129.893C129.522 26.0464 129.151 25.1192 128.718 24.2539C126.802 22.894 124.145 23.2031 122.537 24.9338C121.363 26.3554 120.869 28.2097 121.054 30.064C121.054 31.6711 121.734 33.2782 122.908 34.3907C124.454 35.6269 126.555 35.936 128.409 35.1943C128.409 33.8963 128.409 32.66 128.409 31.362C127.668 31.2384 126.926 31.1766 126.184 31.053V30.4967H131.314V30.9912L130.449 31.2384V35.0088C129.213 35.7506 127.853 36.1832 126.37 36.3687C124.392 36.6159 122.414 36.1214 120.869 34.947C119.447 33.7108 118.582 31.9183 118.643 30.0022C118.582 28.5188 119.076 27.0353 120.003 25.8609ZM180.701 24.2539H181.133V26.7263H183.791V27.777H181.133V33.649C181.072 34.2053 181.381 34.7616 181.875 35.0088C182.555 35.1943 183.297 35.1325 183.977 34.8234C184.039 34.947 184.039 35.0706 184.1 35.1943C183.173 35.936 181.999 36.245 180.886 36.0596C180.392 35.9978 179.959 35.7506 179.712 35.3797C179.403 34.8852 179.279 34.3907 179.341 33.8344C179.341 31.7947 179.403 29.6932 179.403 27.6534H177.981V27.0353C178.476 26.9117 178.908 26.7263 179.403 26.6027C179.835 25.8609 180.206 25.0574 180.701 24.2539ZM132.242 27.5298C133.231 27.1589 134.158 26.7881 135.147 26.479C135.209 27.3444 135.209 28.2097 135.209 29.0751C135.765 28.3333 136.074 27.3444 136.877 26.7881C137.434 26.3554 138.299 26.4172 138.732 26.9735C138.979 27.5916 138.732 28.3333 138.114 28.6424C137.681 28.457 137.248 28.2715 136.754 28.1479C136.074 28.5188 135.579 29.1987 135.332 29.9404C135.332 31.6711 135.332 33.4018 135.332 35.1325L136.816 35.5033V35.936H132.303C132.303 35.8124 132.303 35.6269 132.303 35.5033L133.478 35.1325C133.478 32.9073 133.478 30.6821 133.478 28.457L132.242 27.777V27.5298ZM141.637 26.9117C142.749 26.4172 144.109 26.3554 145.284 26.7881C146.087 27.2208 146.582 28.0861 146.52 29.0132C146.52 30.9294 146.52 32.8455 146.52 34.6998C146.458 34.8852 146.643 35.1325 146.829 35.1325C147.262 35.1325 147.632 35.1325 148.065 35.1325C148.065 35.1943 148.065 35.3797 148.065 35.4415C147.323 35.8124 146.396 36.245 145.531 35.936C144.975 35.6887 144.604 35.0706 144.665 34.4525C144.233 35.0706 143.615 35.5651 142.935 35.8742C142.008 36.3069 140.895 36.0596 140.153 35.3797C139.535 34.6998 139.35 33.7726 139.659 32.9691C139.968 32.2274 140.586 31.6711 141.39 31.4238C142.44 31.053 143.553 30.7439 144.665 30.4967C144.665 29.5695 144.789 28.5188 144.171 27.7152C143.553 26.9735 142.44 26.8499 141.637 27.4062C141.575 28.0861 141.575 28.766 141.513 29.3841C141.019 29.5077 140.524 29.5077 140.092 29.2605C139.782 28.9514 139.659 28.457 139.968 28.0861C140.339 27.6534 140.957 27.2208 141.637 26.9117ZM142.626 31.8565C142.131 31.9801 141.76 32.351 141.513 32.8455C141.328 33.4018 141.451 34.0199 141.822 34.5144C142.193 34.947 142.811 35.1325 143.367 34.947C143.862 34.7616 144.356 34.4525 144.665 34.0199C144.727 33.0927 144.665 32.1656 144.665 31.2384C143.986 31.4238 143.244 31.6093 142.626 31.8565ZM171.182 27.0971C172.233 26.5408 173.469 26.3554 174.643 26.6027C175.2 26.7263 175.694 27.0353 176.003 27.468C176.312 28.0243 176.498 28.7042 176.436 29.3841V34.638C176.436 34.8234 176.436 35.1325 176.683 35.1943C177.116 35.2561 177.548 35.2561 177.981 35.2561C177.981 35.3179 177.981 35.5033 177.981 35.5651C177.178 35.936 176.25 36.4305 175.385 36.0596C174.829 35.8124 174.643 35.1943 174.582 34.638C174.149 35.2561 173.593 35.6887 172.913 36.0596C171.986 36.4923 170.873 36.3069 170.131 35.6269C169.204 34.6998 169.266 33.1545 170.255 32.2892C170.317 32.2274 170.379 32.1656 170.44 32.1038C171.677 31.2384 173.222 31.1148 174.582 30.6821C174.582 29.755 174.705 28.6424 174.087 27.8389C173.469 27.0971 172.356 26.9735 171.553 27.5916C171.553 28.2715 171.491 28.9514 171.491 29.5695C171.058 29.6932 170.564 29.6932 170.131 29.5077C169.76 29.2605 169.699 28.766 169.946 28.3951C170.255 27.8389 170.749 27.4062 171.306 27.1589M172.789 31.7947C172.295 31.9183 171.862 32.2274 171.553 32.66C171.306 33.2163 171.306 33.8963 171.677 34.4525C172.047 35.0088 172.789 35.1943 173.407 34.947C173.902 34.7616 174.334 34.4525 174.643 34.0199C174.643 33.0927 174.643 32.1656 174.643 31.2384C174.025 31.362 173.407 31.6093 172.789 31.7947ZM185.337 28.6424C186.016 27.5298 187.191 26.7263 188.489 26.5408C189.416 26.4172 190.343 26.6645 191.085 27.2208C191.888 28.0243 192.383 29.1369 192.445 30.2495H186.202C186.078 31.4238 186.387 32.66 187.067 33.649C187.871 34.5762 189.045 34.947 190.22 34.638C191.023 34.3907 191.703 33.9581 192.259 33.4018L192.568 33.649C192.074 34.638 191.27 35.4415 190.281 35.936C189.169 36.4305 187.871 36.4305 186.82 35.8742C186.016 35.5033 185.398 34.8234 185.028 34.0817C184.224 32.2892 184.286 30.2495 185.337 28.6424ZM187.253 27.5916C186.696 28.1479 186.326 28.8896 186.264 29.6314C187.624 29.6314 188.983 29.6314 190.343 29.6314C190.281 28.8896 190.034 28.1479 189.54 27.5916C188.86 27.0353 187.871 27.0353 187.253 27.5916ZM158.449 27.0971L161.54 26.6027V32.8455C161.478 33.4636 161.725 34.0817 162.158 34.5144C163.147 35.3179 164.692 34.8852 165.496 34.0199C165.496 31.9801 165.496 29.9404 165.496 27.9007C165.001 27.777 164.568 27.6534 164.074 27.468V27.0971L167.288 26.6027V34.8852L168.648 35.3797V35.7506L165.681 36.245C165.619 35.6887 165.557 35.1325 165.496 34.5144C164.877 35.3797 163.95 35.936 162.961 36.245C162.096 36.4305 161.169 36.1832 160.489 35.5651C159.933 34.8852 159.624 34.0817 159.685 33.2163V27.9007L158.449 27.4062C158.511 27.3444 158.511 27.1589 158.449 27.0971Z" fill="white"/>
<path d="M222.608 21.5937C223.226 21.2846 223.968 21.5937 224.277 22.2118C224.277 22.2736 224.339 22.3354 224.339 22.3972C224.524 23.0771 224.153 23.757 223.535 23.9424C223.412 24.0043 223.288 24.0042 223.164 24.0042C222.484 24.0042 221.928 23.448 221.866 22.768C221.866 22.2736 222.114 21.8409 222.608 21.5937ZM260.374 21.6555C260.992 21.4082 261.734 21.6555 261.981 22.2736C262.043 22.3354 262.043 22.459 262.043 22.5826C262.105 23.2625 261.672 23.9424 260.93 24.0042C260.869 24.0042 260.807 24.0042 260.807 24.0042C260.127 24.0042 259.632 23.448 259.571 22.8299C259.632 22.2736 259.941 21.8409 260.374 21.6555ZM196.895 23.3243V22.8917H202.211C202.211 23.0153 202.211 23.2007 202.211 23.3243L200.542 23.757V30.4943C200.48 31.6687 200.727 32.8431 201.345 33.8939C201.84 34.6356 202.643 35.0683 203.509 35.1301C204.683 35.3155 205.857 34.9446 206.661 34.1411C207.403 33.1521 207.835 31.9778 207.774 30.7416C207.774 28.4546 207.774 26.2294 207.774 23.9424L205.548 23.3243V22.8917H210.246V23.3243L208.701 23.8188V29.938C208.824 31.2979 208.577 32.5959 208.021 33.8321C207.341 35.0065 206.228 35.81 204.93 36.0572C203.818 36.3045 202.705 36.2427 201.593 35.9954C200.604 35.7482 199.8 35.1301 199.244 34.3265C198.626 33.2758 198.378 32.1014 198.44 30.8652C198.44 28.5164 198.44 26.1058 198.44 23.757C197.946 23.5716 197.39 23.448 196.895 23.3243ZM266.308 24.0661H266.74V26.5385H269.398V27.5274C268.533 27.5274 267.606 27.5274 266.74 27.5274V33.523C266.74 34.0793 266.988 34.512 267.482 34.7592C268.162 34.9446 268.904 34.8828 269.584 34.6356L269.707 35.0065C268.78 35.7482 267.606 36.0572 266.431 35.8718C265.937 35.81 265.504 35.5628 265.257 35.1919C265.01 34.6974 264.886 34.1411 264.886 33.523C264.886 31.4833 264.948 29.5054 264.948 27.4656H263.526C263.526 27.2802 263.526 27.0948 263.526 26.8475L264.948 26.4149L266.308 24.0661ZM210.308 27.2802C211.297 26.9093 212.224 26.5385 213.151 26.2294C213.213 26.8475 213.213 27.4656 213.275 28.0837C214.078 27.1566 215.129 26.5385 216.303 26.2912C217.107 26.1676 217.91 26.353 218.467 26.9093C218.961 27.5892 219.208 28.3928 219.147 29.2581V34.8828L220.321 35.3155V35.81H216.118C216.118 35.6864 216.118 35.5009 216.118 35.3773C216.489 35.2537 216.86 35.1301 217.292 35.0065C217.292 33.2758 217.292 31.5451 217.292 29.8762C217.354 29.2581 217.169 28.64 216.798 28.1455C216.365 27.7129 215.685 27.5892 215.129 27.7129C214.449 27.8983 213.831 28.2073 213.337 28.7018C213.337 30.8034 213.337 32.9049 213.337 35.0065L214.573 35.3773V35.81H210.308C210.308 35.6864 210.308 35.5009 210.308 35.3773L211.482 35.0065V28.331C211.05 28.0837 210.679 27.8983 210.246 27.6511C210.246 27.5892 210.246 27.4656 210.246 27.4038M221.186 27.342C222.175 27.033 223.164 26.6621 224.153 26.353V34.9446L225.513 35.3155V35.7482H221.186C221.186 35.6246 221.186 35.4391 221.186 35.3155C221.557 35.1919 221.99 35.0683 222.361 34.8828C222.361 32.6577 222.361 30.4325 222.361 28.2691L221.248 27.5892L221.186 27.342ZM235.65 28.64C236.268 27.5274 237.319 26.6621 238.555 26.353C239.668 26.1058 240.842 26.353 241.707 27.1566C242.387 27.9601 242.82 29.0109 242.882 30.0616H236.639C236.515 31.2978 236.824 32.4722 237.566 33.523C238.37 34.3884 239.606 34.7592 240.718 34.4502C241.46 34.2029 242.14 33.7702 242.696 33.214L243.005 33.4612C242.511 34.4502 241.646 35.2537 240.657 35.7482C239.359 36.3045 237.813 36.1808 236.701 35.3773C235.835 34.6974 235.217 33.7084 235.032 32.5959C234.785 31.236 234.97 29.8144 235.65 28.64ZM237.69 27.4656C237.133 28.0219 236.824 28.7636 236.701 29.5053H240.78C240.718 28.7636 240.471 28.0837 239.977 27.5274C239.359 26.8475 238.308 26.8475 237.69 27.4656ZM243.994 27.4038C244.922 27.0329 245.91 26.6621 246.838 26.353C246.899 27.2184 246.838 28.0837 246.961 28.8872C247.456 28.0837 247.827 27.1566 248.568 26.6003C249.125 26.1676 250.114 26.2294 250.423 26.9093C250.608 27.5274 250.361 28.2073 249.805 28.5164L248.445 28.0219C247.888 28.331 247.456 28.8254 247.208 29.3817C247.085 29.5672 247.023 29.7526 247.023 29.9998V35.0065L248.506 35.3773V35.81H243.994V35.3773L245.169 35.0065C245.169 32.7813 245.169 30.5561 245.169 28.331C244.798 28.0837 244.365 27.8983 243.933 27.6511C243.994 27.5274 243.994 27.4038 243.994 27.4038ZM252.339 27.2184C253.822 26.1058 255.8 25.9822 257.407 26.9093C257.407 27.7129 257.407 28.5164 257.407 29.3199H257.036C256.727 28.7018 256.48 28.0219 256.171 27.342C255.491 26.7239 254.502 26.7239 253.76 27.2184C253.142 27.7747 253.08 28.7018 253.637 29.3199C253.699 29.4435 253.822 29.5054 253.946 29.5672C255.058 30.2471 256.356 30.4325 257.284 31.2978C257.84 31.8541 258.087 32.7195 257.84 33.523C257.593 34.512 256.851 35.2537 255.924 35.6246C254.502 36.1809 252.895 36.0572 251.597 35.3155C251.535 34.3884 251.535 33.3994 251.473 32.4722H251.844C252.215 33.214 252.462 34.0175 252.833 34.7592C253.575 35.5009 254.749 35.5009 255.553 34.8828C256.233 34.3265 256.295 33.2758 255.738 32.5959C255.676 32.534 255.615 32.4722 255.553 32.4104C254.564 31.7305 253.328 31.5451 252.339 30.8034C251.288 29.8762 251.226 28.331 252.091 27.342C252.153 27.2802 252.277 27.1566 252.339 27.0948M259.014 27.342L261.981 26.353C261.981 29.1963 261.981 32.1014 261.981 34.9446C262.414 35.1301 262.846 35.2537 263.279 35.3773V35.81H258.952V35.3773L260.127 35.0065C260.127 32.7813 260.127 30.5561 260.127 28.331L258.952 27.6511L259.014 27.342ZM225.513 26.5385H229.84V27.033L228.604 27.4038C229.345 29.5672 230.149 31.7305 230.891 33.9557C231.694 31.7923 232.374 29.629 233.178 27.4656L231.818 27.033V26.6003H235.094V27.0948L233.981 27.4656C232.93 30.3707 231.818 33.2758 230.767 36.1808H229.84C228.727 33.2758 227.676 30.3707 226.564 27.5274C226.193 27.4038 225.822 27.2802 225.451 27.1566V26.6621M270.264 26.6003H274.096V27.0948L273.107 27.4656C273.91 29.629 274.714 31.7923 275.456 33.8939L277.743 27.5274L276.383 27.0948V26.6621H279.412V27.1566L278.484 27.5274C277.063 31.4215 275.641 35.2537 274.158 39.1477C273.91 39.9513 273.292 40.5694 272.427 40.7548H272.056C271.5 40.693 271.067 40.1985 271.067 39.6422C271.067 39.0241 271.562 38.5296 272.18 38.5296C272.242 38.5296 272.242 38.5296 272.303 38.5296C272.798 38.5296 273.169 38.9623 273.478 39.3332C273.849 38.406 274.158 37.4789 274.529 36.5517C273.354 33.523 272.242 30.4943 271.067 27.4656L270.202 27.1566L270.264 26.6003Z" fill="white"/>
<path d="M10.8464 21.0397C11.6475 21.7815 12.2637 22.6468 12.6335 23.6976C12.88 24.5011 12.7567 25.3664 12.3254 26.0464C11.2778 27.7152 9.42904 28.7042 8.62792 30.4967C8.19655 31.4856 8.25818 32.5982 8.68955 33.5872C7.88843 32.7219 7.0257 31.7329 6.90245 30.4967C6.84082 29.5077 7.14894 28.5806 7.82681 27.9007C8.87442 26.6026 10.2918 25.6137 10.9696 24.0684C11.401 23.0795 11.3394 21.9669 10.8464 21.0397Z" fill="white"/>
<path d="M13.0649 25.8609C13.866 26.6026 14.4822 27.5298 14.852 28.5805C15.0985 29.3841 14.9136 30.1876 14.4822 30.8675C13.4346 32.5364 11.5859 33.5254 10.7848 35.3179C10.3534 36.3068 10.3534 37.4194 10.8464 38.4084C10.0453 37.6666 9.42904 36.7395 9.0593 35.6887C8.87443 34.947 8.99767 34.0817 9.42904 33.4017C10.415 31.7329 12.2021 30.6821 13.0649 28.8896C13.5579 27.9006 13.4962 26.8499 13.0649 25.8609Z" fill="white"/>
<path d="M10.3534 19H11.401C13.2497 19.1236 15.0985 19.6799 16.6391 20.6689C21.569 23.883 22.9863 30.4967 19.7819 35.4415C16.5774 40.3863 9.98366 41.8079 5.05373 38.5938C2.1574 36.7395 0.370297 33.5872 0.185425 30.1258V29.0132C0.555169 23.6358 4.93048 19.3091 10.3534 19ZM10.8464 21.0397C11.2778 21.9669 11.3394 23.0177 10.908 23.9448C10.2302 25.4901 8.75117 26.479 7.76519 27.777C7.08732 28.457 6.7792 29.4459 6.84083 30.3731C6.96408 31.6093 7.82681 32.5982 8.62793 33.4636C8.13493 32.4746 8.13493 31.362 8.5663 30.3731C9.42904 28.5806 11.2778 27.5916 12.2637 25.9227C12.6951 25.2428 12.8184 24.3775 12.6335 23.574C12.2637 22.6468 11.6475 21.7196 10.8464 21.0397ZM13.0649 25.8609C13.4962 26.7881 13.5579 27.9007 13.1265 28.8278C12.3254 30.6821 10.5383 31.7329 9.49067 33.4018C9.0593 34.0817 8.93605 34.8852 9.12092 35.6887C9.49066 36.7395 10.0453 37.6667 10.8464 38.4084C10.3534 37.4194 10.3534 36.3068 10.7848 35.3179C11.6475 33.5254 13.4962 32.5364 14.4822 30.8676C14.9136 30.1876 15.0368 29.3841 14.852 28.5806C14.4822 27.5916 13.866 26.6645 13.0649 25.8609Z" fill="#AF1D27"/>
</svg>
