<svg width="499" height="485" viewBox="0 0 499 485" fill="none" xmlns="http://www.w3.org/2000/svg">
<g clip-path="url(#clip0_1_61)">
<path d="M376.925 98.5463H373.431C366.661 98.5463 361.202 93.0836 361.202 86.3099V82.8138V86.3099C361.202 93.0836 355.742 98.5463 348.972 98.5463H345.478H348.972C355.742 98.5463 361.202 104.009 361.202 110.783V114.279V110.783C361.202 104.009 366.661 98.5463 373.431 98.5463H376.925Z" fill="url(#paint0_linear_1_61)"/>
<path d="M106.133 48.7269H102.639C95.8692 48.7269 90.4096 43.2642 90.4096 36.4905V32.9944V36.4905C90.4096 43.2642 84.9501 48.7269 78.1803 48.7269H74.6862H78.1803C84.9501 48.7269 90.4096 54.1895 90.4096 60.9632V64.4593V60.9632C90.4096 54.1895 95.8692 48.7269 102.639 48.7269H106.133V48.7269Z" fill="url(#paint1_linear_1_61)"/>
<path d="M31.2284 32.1204H27.7344C20.9645 32.1204 15.505 26.6577 15.505 19.8841V16.6065V20.1026C15.505 26.8762 10.0455 32.3389 3.27571 32.3389H0H3.49409C10.2639 32.3389 15.7234 37.8016 15.7234 44.5752V48.0713V44.5752C15.7234 37.8016 21.1829 32.3389 27.9527 32.3389H31.2284V32.1204Z" fill="url(#paint2_linear_1_61)"/>
<path d="M479.782 172.401H476.943C471.702 172.401 467.335 168.031 467.335 162.787V159.946V162.787C467.335 168.031 462.967 172.401 457.726 172.401H454.887H457.726C462.967 172.401 467.335 176.771 467.335 182.016V184.856V182.016C467.335 176.771 471.702 172.401 476.943 172.401H479.782Z" fill="url(#paint3_linear_1_61)"/>
<path d="M455.542 35.6165H452.703C447.462 35.6165 443.095 31.2464 443.095 26.0022V23.1617V26.0022C443.095 31.2464 438.727 35.6165 433.486 35.6165H430.647H433.486C438.727 35.6165 443.095 39.9866 443.095 45.2308V48.0713V45.2308C443.095 39.9866 447.462 35.6165 452.703 35.6165H455.542V35.6165Z" fill="url(#paint4_linear_1_61)"/>
<path d="M71.1921 184.638H68.5716C63.7672 184.638 59.8363 180.705 59.8363 175.897V173.275V175.897C59.8363 180.705 55.9055 184.638 51.1011 184.638H48.4805H51.1011C55.9055 184.638 59.8363 188.571 59.8363 193.378V196V193.378C59.8363 188.571 63.7672 184.638 68.5716 184.638H71.1921Z" fill="url(#paint5_linear_1_61)"/>
<path d="M233.449 23.1617H228.208C218.162 23.1617 210.082 15.0769 210.082 5.02564V0V5.24415C210.082 15.2954 202.002 23.3802 191.957 23.3802H186.716H192.175C202.221 23.3802 210.301 31.4649 210.301 41.5162V46.7603V41.5162C210.301 31.4649 218.381 23.3802 228.426 23.3802H233.449V23.1617Z" fill="url(#paint6_linear_1_61)"/>
<path d="M499 95.9242H493.759C483.713 95.9242 475.633 87.8395 475.633 77.7882V72.544V77.7882C475.633 87.8395 467.553 95.9242 457.508 95.9242H452.266H457.508C467.553 95.9242 475.633 104.009 475.633 114.06V119.304V114.06C475.633 104.009 483.713 95.9242 493.759 95.9242H499V95.9242Z" fill="url(#paint7_linear_1_61)"/>
</g>
<g clip-path="url(#clip1_1_61)">
<path d="M412.417 480.03C416.71 465.121 423.646 433.408 414.085 396.049C410.315 381.329 398.166 333.877 354.782 310.859C349.731 308.18 314.599 290.222 275.211 302.976C222.924 319.915 229.175 369.595 176.338 387.525C142.208 399.107 118.622 385.496 99.699 407.224C92.1587 415.883 84.5732 431.045 85.0693 449.039C85.4751 463.615 91.0312 474.42 94.1249 479.561C200.222 479.715 306.319 479.877 412.408 480.03H412.417Z" fill="#EDEDED" fill-opacity="0.1"/>
<path d="M184.871 328.565L184.564 328.528H184.871C184.772 322.152 184.33 315.802 183.554 309.669C183.5 309.2 183.04 308.857 182.571 308.866L165.74 310.453L148.883 311.707C148.477 311.743 148.143 312.05 148.071 312.429L145.374 324.677C144.165 324.434 142.145 324.325 140.404 325.696C138.627 327.13 138.213 329.277 138.131 330.432C137.87 334.048 140.765 337.963 145.329 340.209C146.024 347.551 146.123 355.055 145.627 362.523C145.158 369.486 144.156 376.458 142.65 383.241C142.578 383.548 142.677 383.873 142.921 384.116L152.482 392.964C152.653 393.118 152.869 393.199 153.095 393.199C153.239 393.199 153.383 393.163 153.528 393.091L172.649 382.601C172.965 382.438 173.145 382.087 173.109 381.744L171.179 356.525C174.426 357.175 177.141 356.85 179.279 355.569C185.205 352.024 185.069 342.175 184.871 328.546V328.565ZM170.412 354.505C170.124 354.424 169.808 354.505 169.619 354.676C169.393 354.857 169.267 355.136 169.285 355.443L171.269 381.302L153.23 391.196L144.544 383.151C146.015 376.377 146.989 369.486 147.44 362.65C147.954 355.019 147.845 347.235 147.097 339.523C147.061 339.199 146.862 338.928 146.574 338.802C142.389 336.89 139.728 333.588 139.953 330.567C140.007 329.71 140.296 328.132 141.559 327.13C143.345 325.705 145.708 326.652 145.744 326.67C145.987 326.761 146.267 326.743 146.484 326.625C146.709 326.517 146.88 326.31 146.962 326.021L149.694 313.475L165.894 312.266L181.867 310.76C182.562 316.587 182.968 322.567 183.067 328.546C183.112 331.027 183.13 333.002 183.13 334.761C183.13 345.404 182.372 351.628 178.368 354.027C176.401 355.208 173.723 355.362 170.421 354.505H170.412Z" fill="#231F20"/>
<path d="M183.419 334.761C183.419 345.431 182.679 351.781 178.503 354.288C176.456 355.506 173.714 355.677 170.322 354.793C170.142 354.748 169.934 354.784 169.79 354.911C169.637 355.028 169.565 355.226 169.574 355.416L171.567 381.473L153.167 391.566L144.193 383.259C145.672 376.495 146.664 369.549 147.124 362.631C147.647 354.965 147.521 347.208 146.781 339.559C146.754 339.343 146.628 339.163 146.429 339.072C142.136 337.115 139.403 333.688 139.629 330.54C139.692 329.629 140.007 327.951 141.342 326.887C143.191 325.408 145.564 326.274 145.816 326.382C145.987 326.445 146.168 326.427 146.321 326.346C146.475 326.274 146.592 326.12 146.637 325.949L149.415 313.186L165.831 311.969L182.102 310.435C182.823 316.397 183.238 322.494 183.337 328.546C183.374 330.756 183.401 332.84 183.401 334.761H183.419Z" fill="#FFF0D8"/>
<path d="M185.277 315.937C191.969 309.894 193.169 305.565 192.727 302.561C192.032 297.88 186.693 292.144 186.747 292.225C180.018 285.974 174.661 284.874 171.035 285.009C165.235 285.225 164.55 288.59 155.548 290.385C147.99 291.891 144.959 290.222 141.658 293.379C139.926 295.039 139.069 297.51 137.365 302.462C135.579 307.621 134.695 310.201 135.074 313.114C135.543 316.749 137.626 320.916 140.567 323.622C141.415 324.397 142.632 325.336 144.003 327.176C144.689 328.096 145.221 328.979 145.645 329.782C146.005 330.477 147.016 330.386 147.286 329.656C147.999 327.699 148.161 326.075 148.161 324.876C148.152 322.548 147.503 320.925 148.378 318.751C148.378 318.751 148.567 316.361 150.353 315.991C155.683 314.891 167.337 319.175 181.146 316.902C182.959 316.605 184.411 316.217 185.295 315.955L185.277 315.937Z" fill="#3E3638"/>
<path d="M160.464 332.659C160.698 334.373 161.6 335.654 162.484 335.519C163.359 335.383 163.873 333.877 163.639 332.154C163.404 330.441 162.502 329.16 161.618 329.295C160.743 329.43 160.229 330.937 160.464 332.659Z" fill="#231F20"/>
<path d="M175.509 330.63C175.743 332.344 176.645 333.625 177.529 333.489C178.404 333.354 178.918 331.848 178.683 330.125C178.449 328.411 177.547 327.13 176.663 327.266C175.788 327.401 175.274 328.907 175.509 330.63Z" fill="#231F20"/>
<path d="M156.279 328.429C156.143 328.429 156.008 328.384 155.882 328.303C155.557 328.068 155.476 327.599 155.693 327.257C155.819 327.049 158.903 322.26 163.873 323.631C164.252 323.73 164.478 324.145 164.378 324.551C164.279 324.957 163.9 325.2 163.521 325.092C159.508 323.992 156.892 328.05 156.865 328.096C156.73 328.312 156.504 328.429 156.279 328.429Z" fill="#231F20"/>
<path d="M172.108 324.894C171.91 324.894 171.72 324.803 171.576 324.641C171.314 324.325 171.341 323.847 171.639 323.577C175.49 319.942 180.262 322.711 180.469 322.828C180.812 323.036 180.929 323.487 180.74 323.856C180.55 324.217 180.118 324.352 179.784 324.154C179.621 324.055 175.671 321.791 172.577 324.713C172.442 324.839 172.279 324.903 172.108 324.903V324.894Z" fill="#231F20"/>
<path d="M169.303 342.617C169.014 342.617 168.735 342.419 168.636 342.112C168.509 341.715 168.699 341.291 169.069 341.147L172.343 339.92C172.649 339.803 172.893 339.55 173.001 339.226C173.109 338.901 173.082 338.54 172.92 338.243C169.24 331.586 169.204 331.451 169.168 331.334C169.041 330.937 169.24 330.513 169.61 330.377C169.961 330.251 170.34 330.432 170.485 330.792C170.629 331.09 171.991 333.579 174.138 337.476C174.516 338.161 174.589 338.991 174.336 339.74C174.083 340.488 173.524 341.075 172.821 341.336L169.547 342.563C169.465 342.59 169.393 342.608 169.312 342.608L169.303 342.617Z" fill="#231F20"/>
<path d="M171.441 349.436C168.942 349.436 166.769 347.686 166.642 347.578C166.336 347.325 166.272 346.847 166.507 346.523C166.741 346.189 167.183 346.126 167.499 346.378C167.499 346.378 170.89 349.093 173.461 347.289C173.786 347.064 174.228 347.154 174.435 347.506C174.652 347.857 174.561 348.326 174.237 348.552C173.317 349.201 172.352 349.436 171.432 349.436H171.441Z" fill="#231F20"/>
<path d="M215.312 463.091C211.866 445.584 208.403 428.086 204.948 410.579L209.377 480.102L209.684 485H116.827C116.962 483.367 117.107 481.735 117.242 480.102C117.269 479.751 117.305 479.417 117.323 479.065L105.526 479.282C101.458 479.363 98.1386 475.872 98.1386 471.525V392.252C98.1386 387.435 100.682 383.043 104.705 380.905C109.891 378.136 115.267 375.385 120.832 372.679C129.211 368.575 137.356 364.877 145.221 361.513C146.673 368.747 152.599 373.78 158.985 373.581C164.351 373.428 169.267 369.604 171.323 363.93L205.535 371.967C209.458 372.887 212.669 375.854 214.085 379.868L240.936 455.912C232.395 458.311 223.853 460.701 215.312 463.1V463.091Z" fill="#CC314E"/>
<path d="M179.161 485H149.613L149.46 480.102L149.397 478.461L178.431 477.902L177.294 466.339L145.987 460.521L145.23 361.522C148.405 362.659 152.671 363.84 157.812 364.345C163.242 364.877 167.887 364.489 171.332 363.939C173.542 398.123 175.761 432.299 177.971 466.474C178.178 469.595 178.386 472.715 178.575 475.836C178.674 477.261 178.765 478.695 178.855 480.102C178.963 481.735 179.071 483.367 179.17 485H179.161Z" fill="#FFCAD4"/>
<path d="M190.265 467.574C190.265 467.574 189.48 467.105 189.029 466.835L188.722 466.654C188.659 466.618 187.667 466.014 186.747 465.455C185.61 464.778 184.276 464.598 183.022 464.959L176.708 466.762L177.358 473.383L188.948 474.348L190.58 467.818L190.256 467.574H190.265ZM188.037 473.058L178.467 472.255L178.016 467.655L183.347 466.122C184.294 465.851 185.268 465.987 186.116 466.501C187.063 467.069 188.073 467.682 188.091 467.682L188.397 467.863C188.623 468.007 188.957 468.206 189.209 468.35L188.037 473.058Z" fill="#231F20"/>
<path d="M189.209 468.35L188.037 473.058L178.467 472.255L178.016 467.655L183.347 466.122C184.294 465.851 185.268 465.987 186.116 466.501C187.063 467.069 188.073 467.682 188.091 467.682L188.397 467.863C188.623 468.007 188.957 468.206 189.209 468.35Z" fill="white"/>
<path d="M306.455 410.02C305.959 409.38 305.21 409.019 304.425 409.019H206.455C204.813 409.01 203.37 410.165 202.955 411.851L188.001 471.922H135.669C133.964 471.922 132.584 473.365 132.584 475.151V477.775C132.584 479.552 133.964 481.004 135.669 481.004H289.904L306.96 412.465C307.176 411.581 306.996 410.697 306.455 410.02ZM186.188 479.2H135.669C134.966 479.191 134.397 478.551 134.397 477.775V475.151C134.397 474.366 134.966 473.735 135.669 473.735H187.55L186.179 479.2H186.188ZM305.21 412.005L288.497 479.2H188.073L204.714 412.284C204.93 411.409 205.643 410.823 206.455 410.823H304.425C304.669 410.832 304.876 410.931 305.03 411.139C305.219 411.382 305.3 411.707 305.21 412.014V412.005Z" fill="#231F20"/>
<path d="M187.559 473.735L186.188 479.2H135.669C134.966 479.191 134.397 478.551 134.397 477.775V475.151C134.397 474.366 134.966 473.735 135.669 473.735H187.55H187.559Z" fill="#D4AF99"/>
<path d="M305.499 412.086L288.731 479.498H187.676L204.416 412.203C204.669 411.211 205.508 410.507 206.446 410.507H304.416C304.741 410.516 305.048 410.661 305.264 410.94C305.517 411.256 305.607 411.68 305.49 412.077L305.499 412.086Z" fill="#FFE1CF"/>
<path d="M248.432 473.428L246.916 479.498H196.154C195.279 479.489 194.585 478.713 194.585 477.766V475.142C194.585 474.195 195.288 473.428 196.154 473.428H248.423H248.432Z" fill="#373737" fill-opacity="0.1"/>
<path d="M255.693 445.007C255.693 450.365 251.625 454.712 246.61 454.712C241.595 454.712 237.536 450.365 237.536 445.007C237.536 439.65 241.604 435.302 246.619 435.302C251.634 435.302 255.693 439.65 255.693 445.007Z" fill="#231F20"/>
<path d="M424.773 480.102H73.2266V485H424.773V480.102Z" fill="#514246"/>
<path d="M145.257 358.41C145.257 358.04 145.591 357.761 145.951 357.824C150.687 358.726 156.405 359.366 162.872 359.168C165.803 359.078 168.545 358.834 171.071 358.491C171.432 358.446 171.738 358.726 171.738 359.087L171.684 364.02C168.509 364.661 164.541 365.175 159.977 365.121C153.988 365.049 148.964 364.011 145.266 362.947C145.266 361.432 145.266 359.917 145.266 358.401L145.257 358.41Z" fill="#AF1E27"/>
<path d="M177.213 467.746C177.168 467.746 177.123 467.746 177.078 467.728L124.882 455.344C123.908 455.118 123.213 454.252 123.186 453.251L122.239 412.591C122.239 412.257 122.491 411.978 122.825 411.969H122.843C123.168 411.969 123.439 412.23 123.448 412.555L124.395 453.215C124.404 453.666 124.719 454.054 125.152 454.153L177.349 466.537C177.673 466.618 177.872 466.943 177.799 467.268C177.736 467.547 177.484 467.737 177.213 467.737V467.746Z" fill="#231F20"/>
<path d="M204.263 410.76C204.01 410.76 203.767 410.598 203.686 410.345L201.801 404.482C201.701 404.167 201.873 403.824 202.188 403.725C202.504 403.625 202.847 403.797 202.946 404.112L204.831 409.975C204.93 410.291 204.759 410.634 204.443 410.733C204.38 410.751 204.317 410.76 204.254 410.76H204.263Z" fill="#231F20"/>
<path d="M376.681 286.254H253.23C250.705 286.254 248.63 288.31 248.63 290.854V333.859C248.63 336.403 250.696 338.459 253.23 338.459H264.108V353.143C264.108 353.386 264.261 353.612 264.496 353.702C264.568 353.738 264.64 353.747 264.712 353.747C264.883 353.747 265.037 353.684 265.145 353.567L279.73 338.459H376.672C379.216 338.459 381.272 336.403 381.272 333.859V290.845C381.272 288.301 379.216 286.245 376.672 286.245L376.681 286.254ZM380.072 333.859C380.072 335.726 378.557 337.25 376.681 337.25H279.486C279.333 337.25 279.17 337.314 279.053 337.431L265.325 351.646V337.855C265.325 337.512 265.055 337.25 264.721 337.25H253.239C251.372 337.25 249.848 335.726 249.848 333.859V290.845C249.848 288.978 251.372 287.453 253.239 287.453H376.69C378.566 287.453 380.081 288.978 380.081 290.845V333.85L380.072 333.859Z" fill="#231F20"/>
<path d="M380.072 290.845V333.85C380.072 335.717 378.557 337.241 376.681 337.241H279.486C279.333 337.241 279.17 337.304 279.053 337.422L265.325 351.637V337.846C265.325 337.503 265.055 337.241 264.721 337.241H253.239C251.372 337.241 249.848 335.717 249.848 333.85V290.845C249.848 288.978 251.372 287.453 253.239 287.453H376.69C378.566 287.453 380.081 288.978 380.081 290.845H380.072Z" fill="white"/>
<path d="M378.512 317.994C367.562 317.994 358.66 326.896 358.66 337.846C358.66 348.795 367.562 357.689 378.512 357.689C389.462 357.689 398.355 348.786 398.355 337.846C398.355 326.905 389.453 317.994 378.512 317.994ZM378.512 356.471C368.23 356.471 359.869 348.11 359.869 337.846C359.869 327.581 368.23 319.202 378.512 319.202C388.794 319.202 397.137 327.572 397.137 337.846C397.137 348.119 388.776 356.471 378.512 356.471Z" fill="#231F20"/>
<path d="M397.137 337.846C397.137 348.119 388.776 356.471 378.512 356.471C368.248 356.471 359.869 348.11 359.869 337.846C359.869 327.581 368.23 319.202 378.512 319.202C388.794 319.202 397.137 327.572 397.137 337.846Z" fill="white"/>
<path d="M276.672 307.612C277.646 308.343 278.25 309.335 278.485 310.589H275.418C275.211 310.156 274.904 309.822 274.489 309.56C274.074 309.308 273.569 309.181 272.983 309.181C272.072 309.181 271.332 309.488 270.782 310.101C270.232 310.715 269.952 311.554 269.952 312.6C269.952 313.736 270.241 314.611 270.827 315.225C271.405 315.838 272.234 316.136 273.308 316.136C273.993 316.136 274.598 315.946 275.121 315.567C275.635 315.189 276.005 314.647 276.221 313.953H272.559V311.869H278.638V314.729C278.413 315.432 278.052 316.081 277.556 316.677C277.06 317.272 276.428 317.759 275.653 318.129C274.877 318.499 273.993 318.688 273.001 318.688C271.792 318.688 270.737 318.436 269.835 317.921C268.933 317.407 268.239 316.686 267.743 315.766C267.256 314.837 267.003 313.781 267.003 312.6C267.003 311.418 267.247 310.363 267.743 309.434C268.23 308.505 268.924 307.792 269.826 307.278C270.728 306.764 271.774 306.512 272.965 306.512C274.462 306.512 275.707 306.881 276.672 307.612Z" fill="#BF2340"/>
<path d="M289.868 307.233C290.788 307.756 291.509 308.487 292.041 309.416C292.574 310.345 292.835 311.4 292.835 312.573C292.835 313.745 292.565 314.801 292.032 315.739C291.5 316.677 290.77 317.407 289.85 317.93C288.93 318.454 287.91 318.715 286.792 318.715C285.674 318.715 284.654 318.454 283.734 317.93C282.814 317.407 282.084 316.677 281.552 315.739C281.019 314.801 280.749 313.745 280.749 312.573C280.749 311.4 281.019 310.345 281.552 309.416C282.084 308.487 282.814 307.756 283.734 307.233C284.654 306.71 285.674 306.449 286.792 306.449C287.91 306.449 288.948 306.71 289.868 307.233ZM284.537 310.065C283.978 310.679 283.698 311.518 283.698 312.582C283.698 313.646 283.978 314.467 284.537 315.089C285.096 315.712 285.854 316.018 286.801 316.018C287.748 316.018 288.488 315.712 289.056 315.089C289.624 314.467 289.904 313.637 289.904 312.582C289.904 311.527 289.624 310.697 289.065 310.074C288.506 309.452 287.748 309.145 286.801 309.145C285.854 309.145 285.096 309.452 284.537 310.065Z" fill="#BF2340"/>
<path d="M304.073 307.233C304.993 307.756 305.715 308.487 306.247 309.416C306.779 310.345 307.041 311.4 307.041 312.573C307.041 313.745 306.77 314.801 306.238 315.739C305.706 316.677 304.975 317.407 304.055 317.93C303.135 318.454 302.116 318.715 300.998 318.715C299.879 318.715 298.86 318.454 297.94 317.93C297.02 317.407 296.29 316.677 295.757 315.739C295.225 314.801 294.955 313.745 294.955 312.573C294.955 311.4 295.225 310.345 295.757 309.416C296.29 308.487 297.02 307.756 297.94 307.233C298.86 306.71 299.879 306.449 300.998 306.449C302.116 306.449 303.153 306.71 304.073 307.233ZM298.743 310.065C298.184 310.679 297.904 311.518 297.904 312.582C297.904 313.646 298.184 314.467 298.743 315.089C299.302 315.712 300.06 316.018 301.007 316.018C301.954 316.018 302.693 315.712 303.262 315.089C303.83 314.467 304.11 313.637 304.11 312.582C304.11 311.527 303.83 310.697 303.271 310.074C302.712 309.452 301.954 309.145 301.007 309.145C300.06 309.145 299.302 309.452 298.743 310.065Z" fill="#BF2340"/>
<path d="M319.542 315.712C319.037 316.623 318.315 317.326 317.377 317.84C316.43 318.345 315.321 318.598 314.049 318.598H309.53V306.62H314.049C315.339 306.62 316.448 306.872 317.386 307.369C318.324 307.865 319.046 308.568 319.542 309.47C320.047 310.372 320.3 311.409 320.3 312.591C320.3 313.772 320.047 314.81 319.542 315.712ZM316.421 315.107C317.044 314.512 317.359 313.664 317.359 312.582C317.359 311.5 317.044 310.661 316.421 310.056C315.79 309.461 314.915 309.154 313.788 309.154H312.417V316H313.788C314.915 316 315.799 315.703 316.421 315.098V315.107Z" fill="#BF2340"/>
<path d="M334.397 306.629V314.81C334.397 316.063 334.055 317.029 333.369 317.705C332.684 318.381 331.737 318.724 330.537 318.724C329.229 318.724 328.192 318.354 327.416 317.615C326.64 316.875 326.262 315.811 326.262 314.422H329.121C329.121 315.54 329.545 316.099 330.393 316.099C331.123 316.099 331.493 315.667 331.493 314.81V306.629H334.388H334.397Z" fill="#BF2340"/>
<path d="M345.924 307.233C346.844 307.756 347.566 308.487 348.098 309.416C348.63 310.345 348.892 311.4 348.892 312.573C348.892 313.745 348.621 314.801 348.089 315.739C347.557 316.677 346.826 317.407 345.906 317.93C344.986 318.454 343.967 318.715 342.849 318.715C341.73 318.715 340.711 318.454 339.791 317.93C338.871 317.407 338.14 316.677 337.608 315.739C337.076 314.801 336.806 313.745 336.806 312.573C336.806 311.4 337.076 310.345 337.608 309.416C338.14 308.487 338.871 307.756 339.791 307.233C340.711 306.71 341.73 306.449 342.849 306.449C343.967 306.449 345.004 306.71 345.924 307.233ZM340.594 310.065C340.035 310.679 339.755 311.518 339.755 312.582C339.755 313.646 340.035 314.467 340.594 315.089C341.153 315.712 341.911 316.018 342.858 316.018C343.805 316.018 344.544 315.712 345.113 315.089C345.681 314.467 345.96 313.637 345.96 312.582C345.96 311.527 345.681 310.697 345.122 310.074C344.562 309.452 343.805 309.145 342.858 309.145C341.911 309.145 341.153 309.452 340.594 310.065Z" fill="#BF2340"/>
<path d="M360.265 313.484C360.689 314.016 360.897 314.629 360.897 315.333C360.897 316.361 360.554 317.164 359.869 317.741C359.183 318.318 358.209 318.607 356.928 318.607H351.354V306.629H356.793C358.011 306.629 358.958 306.891 359.625 307.423C360.292 307.955 360.626 308.712 360.626 309.696C360.626 310.417 360.437 311.021 360.049 311.5C359.661 311.978 359.165 312.293 358.543 312.438C359.264 312.609 359.841 312.952 360.265 313.484ZM354.258 311.518H356.152C357.154 311.518 357.659 311.085 357.659 310.228C357.659 309.371 357.145 308.938 356.116 308.938H354.249V311.518H354.258ZM357.929 314.918C357.929 314.485 357.785 314.151 357.505 313.908C357.226 313.664 356.82 313.547 356.306 313.547H354.258V316.235H356.324C357.397 316.235 357.929 315.793 357.929 314.918Z" fill="#BF2340"/>
<path d="M378.873 332.984C378.674 333.183 378.341 333.183 378.142 332.984C376.311 331.153 373.389 330.684 371.233 332.127C368.329 334.085 368.049 338.053 370.394 340.398L370.927 340.93L376.636 346.64C377.673 347.677 379.351 347.677 380.388 346.64L386.097 340.93L386.63 340.398C388.975 338.053 388.695 334.075 385.791 332.127C383.635 330.675 380.722 331.144 378.882 332.984H378.873Z" fill="#BF2340"/>
<path d="M385.069 448.913L382.381 480.238H358.534L355.864 448.913H385.069Z" fill="white"/>
<path d="M385.746 455.299L384.402 471.002H356.522L355.178 455.299H385.746Z" fill="#BF2340"/>
<path d="M370.458 467.872C372.739 467.872 374.589 465.756 374.589 463.146C374.589 460.535 372.739 458.419 370.458 458.419C368.176 458.419 366.327 460.535 366.327 463.146C366.327 465.756 368.176 467.872 370.458 467.872Z" fill="white"/>
<path d="M386.458 442.41H384.303L383.04 439.929C382.652 439.181 381.894 438.712 381.047 438.712H359.878C359.039 438.712 358.272 439.181 357.884 439.929L356.631 442.41H354.475C353.618 442.41 352.932 443.104 352.932 443.952V447.352C352.932 448.155 353.555 448.832 354.358 448.886L357.163 481.744H383.779L386.585 448.886C387.378 448.832 388.01 448.155 388.01 447.352V443.952C388.01 443.095 387.315 442.41 386.467 442.41H386.458ZM359.228 440.624C359.363 440.371 359.607 440.227 359.878 440.227H381.047C381.335 440.227 381.579 440.371 381.696 440.624L382.607 442.41H358.335L359.237 440.624H359.228ZM382.39 480.229H358.534L355.864 448.904H385.069L382.39 480.229ZM386.503 447.352L386.404 447.397H354.538L354.439 447.352L354.484 443.907H384.6L386.512 443.952V447.352H386.503Z" fill="#231F20"/>
<path d="M382.598 442.41H358.326L359.228 440.624C359.363 440.371 359.607 440.227 359.878 440.227H381.047C381.335 440.227 381.579 440.371 381.696 440.624L382.607 442.41H382.598Z" fill="white"/>
<path d="M386.503 443.961V447.352L386.395 447.397H354.529L354.43 447.352L354.475 443.916H384.591L386.503 443.961Z" fill="white"/>
</g>
<defs>
<linearGradient id="paint0_linear_1_61" x1="361.26" y1="178.084" x2="361.26" y2="27.889" gradientUnits="userSpaceOnUse">
<stop stop-color="#FFA340"/>
<stop offset="1" stop-color="#FCD224"/>
</linearGradient>
<linearGradient id="paint1_linear_1_61" x1="90.6271" y1="183.204" x2="90.6271" y2="33.0088" gradientUnits="userSpaceOnUse">
<stop stop-color="#FFA340"/>
<stop offset="1" stop-color="#FCD224"/>
</linearGradient>
<linearGradient id="paint2_linear_1_61" x1="15.6116" y1="126.108" x2="15.6116" y2="-194.045" gradientUnits="userSpaceOnUse">
<stop stop-color="#FFA340"/>
<stop offset="1" stop-color="#FCD224"/>
</linearGradient>
<linearGradient id="paint3_linear_1_61" x1="467.437" y1="190.592" x2="467.437" y2="40.3967" gradientUnits="userSpaceOnUse">
<stop stop-color="#FFA340"/>
<stop offset="1" stop-color="#FCD224"/>
</linearGradient>
<linearGradient id="paint4_linear_1_61" x1="443.241" y1="122.298" x2="443.241" y2="-197.856" gradientUnits="userSpaceOnUse">
<stop stop-color="#FFA340"/>
<stop offset="1" stop-color="#FCD224"/>
</linearGradient>
<linearGradient id="paint5_linear_1_61" x1="59.9713" y1="291.369" x2="59.9713" y2="141.173" gradientUnits="userSpaceOnUse">
<stop stop-color="#FFA340"/>
<stop offset="1" stop-color="#FCD224"/>
</linearGradient>
<linearGradient id="paint6_linear_1_61" x1="210.193" y1="242.528" x2="210.193" y2="-77.6256" gradientUnits="userSpaceOnUse">
<stop stop-color="#FFA340"/>
<stop offset="1" stop-color="#FCD224"/>
</linearGradient>
<linearGradient id="paint7_linear_1_61" x1="475.701" y1="315.177" x2="475.701" y2="-4.9767" gradientUnits="userSpaceOnUse">
<stop stop-color="#FFA340"/>
<stop offset="1" stop-color="#FCD224"/>
</linearGradient>
<clipPath id="clip0_1_61">
<rect width="499" height="196" fill="white"/>
</clipPath>
<clipPath id="clip1_1_61">
<rect width="351.547" height="200" fill="white" transform="translate(73.2266 285)"/>
</clipPath>
</defs>
</svg>
