<svg width="63" height="62" viewBox="0 0 63 62" fill="none" xmlns="http://www.w3.org/2000/svg">
<path d="M26.6299 6.53648L11.0782 16.689C6.09241 19.944 6.09241 27.229 11.0782 30.484L26.6299 40.6365C29.4199 42.4706 34.0182 42.4706 36.8082 40.6365L52.2824 30.484C57.2424 27.229 57.2424 19.9698 52.2824 16.7148L36.8082 6.56231C34.0182 4.70231 29.4199 4.70231 26.6299 6.53648Z" stroke="#888888" stroke-width="3" stroke-linecap="round" stroke-linejoin="round"/>
<path d="M15.2114 33.7891L15.1855 45.9049C15.1855 49.1857 17.7172 52.6991 20.8172 53.7324L29.058 56.4707C30.4789 56.9357 32.8297 56.9357 34.2764 56.4707L42.5172 53.7324C45.6172 52.6991 48.1489 49.1857 48.1489 45.9049V33.9182" stroke="#888888" stroke-width="3" stroke-linecap="round" stroke-linejoin="round"/>
<path d="M55.9502 38.75V23.25" stroke="#888888" stroke-width="3" stroke-linecap="round" stroke-linejoin="round"/>
</svg>
