<svg width="24" height="24" viewBox="0 0 24 24" fill="none" xmlns="http://www.w3.org/2000/svg">
<path d="M11.25 6.00002V19.91C11.25 20.62 10.53 21.11 9.88 20.84C8.02 20.06 5.71 19.38 4.07 19.16L3.76 19.12C2.79 19 2 18.11 2 17.14V5.25002C2 4.05002 2.97 3.08002 4.17 3.08002H4.24C6.12 3.24002 8.89 4.12002 10.72 5.11002C11.05 5.29002 11.25 5.62002 11.25 6.00002Z" fill="#EC4751"/>
<path d="M19.83 3.08002H19.77C19.53 3.10002 19.27 3.13002 19 3.18002C17.77 3.38002 16.31 3.80002 15 4.32002C14.38 4.57002 13.8 4.84002 13.29 5.11002C12.96 5.29002 12.75 5.63002 12.75 6.00002V19.91C12.75 20.62 13.47 21.11 14.12 20.84C15.98 20.06 18.29 19.38 19.93 19.16L20.24 19.12C21.21 19 22 18.11 22 17.14V5.25002C22 4.05002 21.03 3.08002 19.83 3.08002ZM19.27 13.73C19.27 14.12 18.99 14.29 18.65 14.1L17.59 13.51C17.48 13.45 17.3 13.45 17.18 13.51L16.12 14.1C15.78 14.29 15.5 14.12 15.5 13.73V10.66C15.5 10.2 15.88 9.82002 16.34 9.82002H18.44C18.9 9.82002 19.28 10.2 19.28 10.66V13.73H19.27Z" fill="#EC4751"/>
</svg>
