<svg width="24" height="24" viewBox="0 0 24 24" fill="none" xmlns="http://www.w3.org/2000/svg">
<path d="M20.5 11.3V7.04001C20.5 3.01001 19.56 2 15.78 2H8.22C4.44 2 3.5 3.01001 3.5 7.04001V18.3C3.5 20.96 4.96001 21.59 6.73001 19.69L6.73999 19.68C7.55999 18.81 8.80999 18.88 9.51999 19.83L10.53 21.18" stroke="#888888" stroke-width="1.5" stroke-linecap="round" stroke-linejoin="round"/>
<path opacity="0.4" d="M8 7H16" stroke="#888888" stroke-width="1.5" stroke-linecap="round" stroke-linejoin="round"/>
<path opacity="0.4" d="M9 11H15" stroke="#888888" stroke-width="1.5" stroke-linecap="round" stroke-linejoin="round"/>
<path d="M18.21 14.77L14.67 18.31C14.53 18.45 14.4 18.71 14.37 18.9L14.18 20.25C14.11 20.74 14.45 21.0801 14.94 21.0101L16.29 20.82C16.48 20.79 16.75 20.66 16.88 20.52L20.42 16.9801C21.03 16.3701 21.32 15.6601 20.42 14.7601C19.53 13.8701 18.82 14.16 18.21 14.77Z" stroke="#888888" stroke-width="1.5" stroke-miterlimit="10" stroke-linecap="round" stroke-linejoin="round"/>
<path d="M17.7 15.28C18 16.36 18.84 17.2 19.92 17.5" stroke="#888888" stroke-width="1.5" stroke-miterlimit="10" stroke-linecap="round" stroke-linejoin="round"/>
</svg>
