<svg width="18" height="18" viewBox="0 0 18 18" fill="none" xmlns="http://www.w3.org/2000/svg">
<path d="M5.25 16.5H12.75C15.75 16.5 16.5 15.75 16.5 12.75V11.25C16.5 8.25 15.75 7.5 12.75 7.5H5.25C2.25 7.5 1.5 8.25 1.5 11.25V12.75C1.5 15.75 2.25 16.5 5.25 16.5Z" stroke="#F2EEEE" stroke-width="1.5" stroke-linecap="round" stroke-linejoin="round"/>
<path d="M13.5 7.5V6C13.5 3.5175 12.75 1.5 9 1.5C5.625 1.5 4.5 3 4.5 5.25" stroke="#F2EEEE" stroke-width="1.5" stroke-linecap="round" stroke-linejoin="round"/>
<path d="M9 13.875C7.96447 13.875 7.125 13.0355 7.125 12C7.125 10.9645 7.96447 10.125 9 10.125C10.0355 10.125 10.875 10.9645 10.875 12C10.875 13.0355 10.0355 13.875 9 13.875Z" stroke="#F2EEEE" stroke-width="1.5" stroke-linecap="round" stroke-linejoin="round"/>
</svg>
